<svg xmlns="http://www.w3.org/2000/svg" xmlns:xlink="http://www.w3.org/1999/xlink" viewBox="0 0 1080 1080"><defs><style>.cls-1{fill:#f2f2f2;}.cls-2{fill:#fff;}.cls-2,.cls-3,.cls-4,.cls-5,.cls-6{fill-rule:evenodd;}.cls-3{fill:#ea4334;}.cls-4{fill:#4285f4;}.cls-5{fill:#fcbc05;}.cls-6{fill:#0d9d58;}.cls-7{fill:#3f3d56;}.cls-8{clip-path:url(#clip-path);}.cls-9{fill:#ff6584;}.cls-10{fill:#6c63ff;}.cls-11{clip-path:url(#clip-path-2);}.cls-12{opacity:0.1;isolation:isolate;}</style><clipPath id="clip-path"><path class="cls-1" d="M422.54,232.33c-26.15,21.81-42.5,44.15-55.36,63.93-23.19,35.65-35.06,63-72.6,64-40.08,1.1-90.78-22.1-118.69-52.66-21.31-23.32-29.34-50.93-9.28-75.3,46.36-56.32,57.29-128,128-128S476.81,187.06,422.54,232.33Z"/></clipPath><clipPath id="clip-path-2"><path class="cls-1" d="M924.44,755c-7.11,48.83,34,68.69,23.63,103.71-13.77,46.5-99.24,55.29-103.32,55.66-10.44,1-94.8,7.54-125.49-47.44-17.88-32-7.82-67.44-6.25-72.69,12.4-41.41,42.89-40.86,94.9-100.91,33.84-39.07,34.39-54.82,56.47-60.87,35.54-9.73,84.65,17.28,90.49,48.86C959.78,707.78,930.16,715.68,924.44,755Z"/></clipPath></defs><title>GDG Algiers</title><g id="Layer_1" data-name="Layer 1"><path class="cls-1" d="M803.08,677.4c38.77-44.77,41.12-64,64.32-72,7.15-53.24.5-107-11.85-155.59C817.51,300.25,686.08,192.28,531.81,188a296.24,296.24,0,0,0-67,5.43c1.62,14.07-3.27,27.5-17,38.94-31.38,26.18-51,53-66.43,76.73-27.83,42.78-42.08,75.6-87.13,76.83a143.6,143.6,0,0,1-29.07-2.37c-38.47,128.43,56.62,218.76,126.24,265.56a517.17,517.17,0,0,1,106.91,96.09c39.65,47.05,105.31,102.21,185.86,84a129.15,129.15,0,0,1,5-30.7C704.08,748.8,740.66,749.46,803.08,677.4Z"/><path class="cls-2" d="M536.29,355.32a68.46,68.46,0,0,0-93.57-25.07L261.23,435a68.47,68.47,0,0,0-2.77,120.11l182.6,105.42a68.49,68.49,0,0,0,34.2,9.19h0a68.51,68.51,0,0,0,34.3-127.83l-79.74-46,81.4-47A68.58,68.58,0,0,0,536.29,355.32Z"/><path class="cls-2" d="M900.15,478.92a68.09,68.09,0,0,0-31.91-41.59L685.64,331.91a68.5,68.5,0,0,0-68.5,118.64l79.74,46-81.4,47a68.51,68.51,0,0,0-25.07,93.57A68.46,68.46,0,0,0,684,662.22L865.46,557.44a68.37,68.37,0,0,0,34.69-78.52Z"/><g id="Group"><path id="Rectangle-Copy" class="cls-3" d="M450.82,344.28,268.22,449.7a52.3,52.3,0,0,0-19.14,71.44h0a52.3,52.3,0,0,0,71.44,19.14l182.6-105.42a52.3,52.3,0,0,0,19.14-71.44h0A52.3,52.3,0,0,0,450.82,344.28Z"/><path id="Rectangle-Copy-2" class="cls-4" d="M501.46,556,318.86,450.53a52.3,52.3,0,0,0-71.44,19.14h0a52.3,52.3,0,0,0,19.14,71.44l182.6,105.42a52.28,52.28,0,0,0,71.44-19.14h0A52.3,52.3,0,0,0,501.46,556Z"/><path id="Rectangle" class="cls-5" d="M623.58,557.61l182.6-105.42a52.3,52.3,0,0,1,71.44,19.14h0a52.3,52.3,0,0,1-19.14,71.44L675.88,648.19a52.28,52.28,0,0,1-71.44-19.14h0A52.3,52.3,0,0,1,623.58,557.61Z"/><path class="cls-6" d="M677.54,345.94l182.6,105.42a52.3,52.3,0,0,1,19.14,71.44h0a52.3,52.3,0,0,1-71.44,19.14L625.24,436.52a52.3,52.3,0,0,1-19.14-71.44h0A52.3,52.3,0,0,1,677.54,345.94Z"/></g><path class="cls-7" d="M199.94,717.21h38.58a22.76,22.76,0,0,1,.55,3.18,31.27,31.27,0,0,1,.22,3.74,43.81,43.81,0,0,1-2.3,14.29,33.12,33.12,0,0,1-7.26,12,36.36,36.36,0,0,1-12.64,8.68,43.34,43.34,0,0,1-16.82,3.08,42.64,42.64,0,0,1-16.16-3.08,40.18,40.18,0,0,1-13.19-8.57,41.32,41.32,0,0,1-8.9-13,42.58,42.58,0,0,1,0-32.87,41.36,41.36,0,0,1,8.9-13A40.34,40.34,0,0,1,184.11,683a42.64,42.64,0,0,1,16.16-3.08,42.2,42.2,0,0,1,17.1,3.3,38.41,38.41,0,0,1,12.91,9.12l-10.22,10a27.91,27.91,0,0,0-30.12-6.43,25.35,25.35,0,0,0-14.23,14,30,30,0,0,0,0,22.31,25.55,25.55,0,0,0,5.82,8.52,26.4,26.4,0,0,0,8.52,5.44,30.31,30.31,0,0,0,20.94.11,25,25,0,0,0,7.42-4.67,17.76,17.76,0,0,0,3.79-5,28.74,28.74,0,0,0,2.48-6.76H199.94Z"/><path class="cls-7" d="M251.6,681.7h26.61A46.67,46.67,0,0,1,295,684.56a36.1,36.1,0,0,1,12.75,8.08,35.13,35.13,0,0,1,8.08,12.47,46.93,46.93,0,0,1,0,32,34.49,34.49,0,0,1-8.08,12.42,36.39,36.39,0,0,1-12.75,8,46.67,46.67,0,0,1-16.81,2.86H251.6Zm26,64.63A33.12,33.12,0,0,0,289,744.52a22.3,22.3,0,0,0,8.24-5.11,21,21,0,0,0,4.95-8,33.51,33.51,0,0,0,0-20.77,20.85,20.85,0,0,0-4.95-8,22.31,22.31,0,0,0-8.24-5.12,33.36,33.36,0,0,0-11.43-1.81H266.44v50.56Z"/><path class="cls-7" d="M368,717.21h38.58a26.14,26.14,0,0,1,.55,3.18,31.27,31.27,0,0,1,.22,3.74,43.55,43.55,0,0,1-2.31,14.29,33.09,33.09,0,0,1-7.25,12,36.36,36.36,0,0,1-12.64,8.68,43.34,43.34,0,0,1-16.82,3.08,42.6,42.6,0,0,1-16.16-3.08A40.18,40.18,0,0,1,339,750.51a41.15,41.15,0,0,1-8.9-13,42.58,42.58,0,0,1,0-32.87,41.2,41.2,0,0,1,8.9-13A40.34,40.34,0,0,1,352.18,683a44.93,44.93,0,0,1,33.25.22,38.35,38.35,0,0,1,12.92,9.12l-10.22,10A27.91,27.91,0,0,0,358,695.94a25.49,25.49,0,0,0-8.47,5.44,26,26,0,0,0-5.77,8.52,30.14,30.14,0,0,0,0,22.31,25.57,25.57,0,0,0,5.83,8.52,26.18,26.18,0,0,0,8.52,5.44,30.31,30.31,0,0,0,20.94.11,25.14,25.14,0,0,0,7.42-4.67,18,18,0,0,0,3.79-5,28.73,28.73,0,0,0,2.47-6.76H368Z"/><path class="cls-7" d="M185.54,813.6h16.93L232,892.31H215.66l-6.48-18.8H178.84l-6.49,18.8H156Zm18.8,46.28-7-19.67-2.86-9.57h-.88l-2.86,9.57-7,19.67Z"/><path class="cls-7" d="M239.51,892.31V813.6h14.4v78.71Z"/><path class="cls-7" d="M290.52,917.81a32.4,32.4,0,0,1-10.17-1.48,29.08,29.08,0,0,1-7.75-3.85,26.2,26.2,0,0,1-5.5-5.22,20.51,20.51,0,0,1-3.18-5.72l13.74-5.5a13.1,13.1,0,0,0,5,6.66,13.75,13.75,0,0,0,7.81,2.36q6.81,0,10.77-4.42t4-12.18v-3.74h-.88a17.63,17.63,0,0,1-6.65,5.55,21.7,21.7,0,0,1-9.73,2,23.51,23.51,0,0,1-9.4-2,24.65,24.65,0,0,1-8.08-5.61,29.61,29.61,0,0,1,0-40.49,24.62,24.62,0,0,1,8.08-5.6,23.51,23.51,0,0,1,9.4-2,21.84,21.84,0,0,1,9.73,2,17.81,17.81,0,0,1,6.65,5.55h.88v-5.82H319v50a34.08,34.08,0,0,1-2.09,12.26,26.69,26.69,0,0,1-5.83,9.23,25.33,25.33,0,0,1-9,5.83A31.79,31.79,0,0,1,290.52,917.81Zm.55-38.47a15,15,0,0,0,5.22-1,13.38,13.38,0,0,0,4.56-2.86,14.35,14.35,0,0,0,3.19-4.64,15.69,15.69,0,0,0,1.21-6.32,16.11,16.11,0,0,0-1.21-6.37,14.15,14.15,0,0,0-3.19-4.69,13.38,13.38,0,0,0-4.56-2.86,14.74,14.74,0,0,0-5.22-1,14.23,14.23,0,0,0-5.17,1,13.14,13.14,0,0,0-4.51,2.91,14.88,14.88,0,0,0-3.18,4.7,17.08,17.08,0,0,0,0,12.63,14.17,14.17,0,0,0,3.18,4.64,13.46,13.46,0,0,0,4.51,2.86A14.45,14.45,0,0,0,291.07,879.34Z"/><path class="cls-7" d="M339.32,831.19a9,9,0,0,1-3.57-.71,9.2,9.2,0,0,1-3-2,9.39,9.39,0,0,1-2-2.91,9.63,9.63,0,0,1,0-7.26,9.39,9.39,0,0,1,2-2.91,9.2,9.2,0,0,1,3-2,9.39,9.39,0,0,1,10.16,2,9.15,9.15,0,0,1,0,13.08A9.06,9.06,0,0,1,339.32,831.19Zm-7.15,61.12V838.45h14.4v53.86Z"/><path class="cls-7" d="M410.22,879.34A30.24,30.24,0,0,1,400.16,890q-6.33,4.07-15.44,4.07a29.64,29.64,0,0,1-11.38-2.15,27.12,27.12,0,0,1-15.06-15.06,29.93,29.93,0,0,1-2.14-11.48,29.31,29.31,0,0,1,2.09-11A27.84,27.84,0,0,1,372.9,839a27,27,0,0,1,11.27-2.31,29.32,29.32,0,0,1,11.54,2.14,23.52,23.52,0,0,1,8.46,5.94,25.51,25.51,0,0,1,5.17,9,34.62,34.62,0,0,1,1.76,11.21v1.32a6.71,6.71,0,0,0-.11,1.21,5.63,5.63,0,0,0-.11,1.2H370.32a15.08,15.08,0,0,0,1.81,5.67,13.74,13.74,0,0,0,3.41,3.95A13,13,0,0,0,380,880.6a17.23,17.23,0,0,0,4.95.72,14,14,0,0,0,8.19-2.26,16.49,16.49,0,0,0,5.11-5.66Zm-13.08-20.89a9.57,9.57,0,0,0-.94-3.19,11,11,0,0,0-2.42-3.29,12.6,12.6,0,0,0-3.95-2.53,14.66,14.66,0,0,0-5.66-1,13.21,13.21,0,0,0-8.14,2.64,13.93,13.93,0,0,0-4.94,7.36Z"/><path class="cls-7" d="M420.33,838.45h13.52v7.47h.88a13.93,13.93,0,0,1,2.64-3.63,19.54,19.54,0,0,1,3.68-2.87,20.87,20.87,0,0,1,4.4-2,15.34,15.34,0,0,1,4.67-.75,17.09,17.09,0,0,1,4.89.61,12.45,12.45,0,0,1,3.46,1.59l-3.84,12.86a14,14,0,0,0-2.92-1,17.25,17.25,0,0,0-3.9-.38,12.38,12.38,0,0,0-5.39,1.16,11.86,11.86,0,0,0-4.12,3.26,15.68,15.68,0,0,0-2.64,4.92,19.45,19.45,0,0,0-.93,6.13v26.52h-14.4Z"/><path class="cls-7" d="M484.19,894.07a30.73,30.73,0,0,1-9.39-1.32,26.27,26.27,0,0,1-7.15-3.46,22.71,22.71,0,0,1-5.11-4.95,23.94,23.94,0,0,1-3.19-5.66l12.86-5.5a13.92,13.92,0,0,0,5,6.21,12.53,12.53,0,0,0,7,2,11.88,11.88,0,0,0,6.27-1.43c1.54-1,2.31-2.09,2.31-3.41a4.18,4.18,0,0,0-1.93-3.57,19.94,19.94,0,0,0-6.65-2.48l-7.58-1.65a26.26,26.26,0,0,1-5.22-1.75,20.53,20.53,0,0,1-4.89-3.08,15.55,15.55,0,0,1-3.63-4.51,12.75,12.75,0,0,1-1.43-6.15,14.35,14.35,0,0,1,1.7-7,16,16,0,0,1,4.68-5.22,22.22,22.22,0,0,1,7-3.3,31,31,0,0,1,8.62-1.15,30.45,30.45,0,0,1,13.75,3,18.68,18.68,0,0,1,8.9,9.62l-12.42,5.06a9.52,9.52,0,0,0-4.51-4.62,13.63,13.63,0,0,0-5.93-1.43,11.06,11.06,0,0,0-5.39,1.26c-1.54.85-2.31,1.93-2.31,3.25a3.32,3.32,0,0,0,1.92,3,21.93,21.93,0,0,0,5.23,2l8.24,2q8.25,2,12.26,6.32a14.67,14.67,0,0,1,4,10.28,14.34,14.34,0,0,1-1.65,6.7,18,18,0,0,1-4.67,5.67,23.11,23.11,0,0,1-7.26,3.9A29.3,29.3,0,0,1,484.19,894.07Z"/></g><g id="Grande_poste" data-name="Grande poste"><path class="cls-1" d="M422.54,232.33c-26.15,21.81-42.5,44.15-55.36,63.93-23.19,35.65-35.06,63-72.6,64-40.08,1.1-90.78-22.1-118.69-52.66-21.31-23.32-29.34-50.93-9.28-75.3,46.36-56.32,57.29-128,128-128S476.81,187.06,422.54,232.33Z"/><g class="cls-8"><path class="cls-7" d="M322.94,229.77a7,7,0,0,1-.23-1A2,2,0,0,0,322.94,229.77Z"/><path class="cls-7" d="M354.17,262.9q0-18.43.16-36.87c0-1.3-.38-1.56-1.56-1.55-5,.07-10.06.07-15.09.09-.29.55-.58,1.09-.86,1.64,1.57,1.44.77,3.5,1.31,5.22a15.31,15.31,0,0,1,.06,2.36c.27,1.86-.24,2.66-2.34,2.51-3-.21-2.89-.06-3-3.15,0-1.74.29-3.41.39-5.12s1.31-2.06,2.67-2.26c.14-.4.28-.8.43-1.2H325.14c-.78,1.15-2.25-.33-3,.8,1.58,1.22.79,2.89.83,4.4s.17,3.13.25,4.7c.06,1.21-.18,1.86-1.74,1.82-3.66-.11-3.71,0-3.64-3.71a28.16,28.16,0,0,1,.45-4.86c.28-1.49,1.46-2,2.91-1.88l.45-.09a1,1,0,0,1,0-1.18h-6.9a2.84,2.84,0,0,1-.43,1.65c1.32,1.75,1,3.88,1.26,5.87.12.91,0,1.86,0,2.78s-.15,1.35-1.25,1.4c-4.12.19-4.12.24-4.18-3.88,0-.42-.08-.84-.12-1.27-.08-.63-.28-1.32-.91-1.48s-.65.68-1,1a29.34,29.34,0,0,0-.08,3.86c.16,1.52-.44,1.75-1.8,1.72-1.13,0-3.06.31-3.53-1.1a3.36,3.36,0,0,1-.13-1.1c-.05-2.68-.52-7.11,2.58-8.36.41-.64,1.67,0,1.73-1.14-11.38,0-22.76,0-34.14-.1-1,0-1.37.27-1.34,1.33.09,2.74.07,5.47.1,8.21v1.3c0,.79-.08,1.58-.08,2.37q0,25.07,0,50.13c0,1.78-.78,4.1.31,5.2s3.43.1,5.18.37c2.31.36,2.68-.57,2.81-2.75.3-5.12-1.42-10.42,1-15.34,1.09-2.19.12-4.21-.1-6.28-.5-4.54,1.7-8.36,5.7-9.39a15.58,15.58,0,0,1,5.78-.39c5.87.69,8.3,4.78,7.53,10.35-.27,2-1,4,.09,6,.46.87,1.14,1.56,1.11,2.78-.14,4.82-.06,9.64-.07,14.47,0,.77.15,1.57-.64,2.16-.51.37-.66,1.3-.18,1.46a3.83,3.83,0,0,0,3.11,0c.53-.3.25-1.05-.28-1.45-.73-.56-.68-1.34-.67-2.14,0-4.75,0-9.51,0-14.26,0-.63-.25-1.35.24-1.88,1.51-1.66,1.6-3.45,1.15-5.63-1.36-6.59,1.08-10.89,6.73-11.76,8.14-1.26,13.75,3,11.77,11.62a5.53,5.53,0,0,0,.19,4.1c.44.87,1.25,1.71,1.21,3-.17,5-.08,10.07-.1,15.11,0,.55.18,1.15-.37,1.6s-1,1.4-.27,1.76a3,3,0,0,0,2.9-.16c.66-.48.16-1.15-.4-1.59s-.42-1-.42-1.58c0-4.89,0-9.77,0-14.66,0-.64-.16-1.36.29-1.88a5.79,5.79,0,0,0,1.13-5.53c-1.75-7.78,2.07-12.3,10-12,4.71.19,7.72,2.3,8.55,6.31a11.85,11.85,0,0,1-.18,5.76,5.82,5.82,0,0,0,1.63,6c1.16.19.85,1,.76,1.89-.3-.57-.52-1-.75-1.45,0,4.81,0,9.63-.14,14.44,0,1.18.52,1.27,1.42,1.25a32.59,32.59,0,0,1,4.53,0c1.89.22,2.21-.55,2.18-2.27Q354.14,277,354.17,262.9Zm-28.46-35.07a2.06,2.06,0,0,1,2.38-2c1.1.08,2.16.59,2.15,1.94,0,1.87.79,3.65.47,5.54-.24.92.59,2.44-.38,2.73a13.58,13.58,0,0,1-4.68.08c-.62,0-.36-.82-.41-1.29C325,232.5,325.54,230.18,325.71,227.83Zm-30.57,5.9c.06-1.85.24-3.68.43-5.52.15-1.34.83-2.32,2.29-2.34a2.08,2.08,0,0,1,2.14,1.46,22.33,22.33,0,0,1,.52,4.17,20.29,20.29,0,0,1-.07,2.81,2.48,2.48,0,0,1-.34,1.44c-.6.69-2.05.51-2.85.54-1.81.08-2.13-.67-2.12-2.18Zm-1.06-2.66h.21v2.87h-.21Zm-6-3.48a2.12,2.12,0,0,1,2.41-1.72c1.57.19,2,1.4,2.22,2.78a34.93,34.93,0,0,1,.36,6.13c0,.84-.18,1.52-1.14,1.47-1.15-.05-2.29,0-3.43,0-.59,0-.94-.14-1-.81A35.62,35.62,0,0,1,288.1,227.59ZM280.05,234c.09-2.06.33-4.1.51-6.15a2.07,2.07,0,0,1,2.16-2c1.48,0,2.17,1,2.43,2.32a24.35,24.35,0,0,1,.44,5.59c0,.84-.07,1.85-.92,2.25a6.5,6.5,0,0,1-2.33.25C280.41,236.42,280,235.91,280.05,234Zm8,16.1a1,1,0,0,1-.13.62,1,1,0,0,1-.82.26,1.51,1.51,0,0,1-1.25-.5,1.55,1.55,0,0,1-.21-.67,22.2,22.2,0,0,1-.29-2.28v-.12c0-.7.11-1.56.86-1.81a2.15,2.15,0,0,1,1-.05,1.23,1.23,0,0,1,.5.2,1.32,1.32,0,0,1,.32,1.06C288,247.92,288,249,288,250.11Zm3.48-3.26c-.15,1.33-.07,2.68-.09,4h-2.17c-.05-1.33-.09-2.67-.17-4-.06-.82.05-1.41,1.08-1.33C291,245.61,291.64,245.66,291.5,246.85Zm1.13,3.37h0c0-1.42,0-2.85.07-4.28,0-.81,1.78-.43,2.12-.15a1.49,1.49,0,0,1,.45,1.09,6.22,6.22,0,0,1-.08,1,2.11,2.11,0,0,0,0,.25,14.74,14.74,0,0,1-.11,2.4,1.2,1.2,0,0,1-.18.4H293A.7.7,0,0,1,292.63,250.22Zm18-3.22a16.88,16.88,0,0,0,0,2.36c0,.89.2,1.6-1.22,1.59s-1.2-.85-1.23-1.66a11.1,11.1,0,0,1,.08-1.26c.43-.66-.92-2.06.7-2.48C309.93,245.3,310.78,245.63,310.64,247Zm3.58,1.39h-.05a7.41,7.41,0,0,1,0,2.11c-.25.79-1.11.38-1.7.47-.75.11-.7-.5-.71-1a13.39,13.39,0,0,1,0-2.76c.11-.59-.77-1.82,1-1.72,1.36.08,1.73.6,1.53,1.82A6.36,6.36,0,0,0,314.22,248.39Zm2.22,2.54c-1.63,0-1.16-1-1.23-1.84,0-.28,0-.57,0-.86h0a8.73,8.73,0,0,1,.19-2.31c.24-.68,1-.18,1.54-.26s.86.32.86.91c0,.85,0,1.71,0,2.57S318,250.92,316.44,250.93Zm2.14-7.84a1,1,0,0,1-.77-.32h12.86l0,.32Zm14.54,4.38c.09.7,0,1.43,0,2.14s-.06,1.29-1.11,1.31-1.4-.35-1.31-1.35a12.36,12.36,0,0,0-.05-1.72c-1.59,0-1.33-1.22-1.69-2.26,1.33.12.47,1.87,1.69,1.83.21-.75-.39-1.86,1.29-1.84S333,246.72,333.12,247.47Zm3.59,3c-.2.75-1,.35-1.5.41s-1-.16-.95-.83c0-.93.05-1.87,0-2.8s0-1.6,1.3-1.65c1.44-.06,1.23.8,1.23,1.65v1.08h0A8.47,8.47,0,0,1,336.71,250.46Zm2.35.47c-.82,0-1.38-.14-1.3-1.17a14.71,14.71,0,0,0,0-2.57c-.12-1.2.34-1.63,1.54-1.65,1.43,0,.88,1,1,1.63a9.85,9.85,0,0,1,0,1.24C339.68,249.05,341.43,250.9,339.06,250.93ZM344.34,240c-.09,1.56-.82,2.08-2.35,2.07-8.28-.05-16.57,0-24.85,0h-4.3v0c-9.51,0-19,0-28.53,0-1.58,0-2.87,0-2.85-2.2s1.17-2.29,2.82-2.29q28.62,0,57.24,0C343.3,237.54,344.48,237.91,344.34,240Zm1.52-5.37c-.05,1.35-.46,1.8-1.73,1.58a4.56,4.56,0,0,0-.64,0c-3.16,0-3.16,0-3.16-3.37-.34-1.4.46-3,.4-4.62a2.32,2.32,0,0,1,4.63-.18A55.56,55.56,0,0,1,345.86,234.67Zm6.95,19.82a6,6,0,0,1-.14-4.06C353.9,252,352.42,253.27,352.81,254.49Z"/><path class="cls-7" d="M227,239.28v0Z"/><path class="cls-7" d="M227,239.28h0a0,0,0,0,1,0,0Z"/><path class="cls-7" d="M243.22,234.56l0-.06C243.24,234.38,243.24,234.41,243.22,234.56Zm-.19,4.77a1.42,1.42,0,0,0,.05.47C243.14,239.86,243.1,239.65,243,239.33Zm-7.39-.2a.35.35,0,0,0,.07.18l-.15-1.82a1.78,1.78,0,0,0,0,.26h0c0,.39.07.75.11,1.07,0,.1,0,.21,0,.31Zm-3.52,3.73a.08.08,0,0,0,0-.06C232.09,242.88,232.07,242.9,232.12,242.86Zm-2.94-4.21h0v0Z"/><path class="cls-7" d="M245.73,228.44l-1.22.4c-8.43,2.68-16.85,5.39-25.3,8-1,.32-1.41.54-1.07,1.68a15.46,15.46,0,0,1,1.13,4.81c-.12,16.19-.05,32.39-.1,48.59,0,1.5.35,1.91,1.89,1.88,8.56-.2,17.13-.33,25.69-.33,1.82,0,2.06-.67,2.05-2.23-.06-10.15,0-20.3,0-30.45h0q0-15.09,0-30.18C248.8,227.44,248.76,227.4,245.73,228.44Zm-2.49,6.06,0,.06C243.24,234.41,243.24,234.38,243.24,234.5Zm-13.33,52.77c0-2.37.06-4.75,0-7.12,0-.77.11-1.21,1-1.22s.76.64.77,1.16c0,1.22,0,2.44,0,3.67h0c0,1.22,0,2.45,0,3.67,0,.66-.09,1.07-.91,1.11C229.77,288.59,229.9,287.92,229.91,287.27Zm1.83-13.76c0,.74-.46.73-1,.76s-.73-.22-.73-.74c0-2.52,0-5,.1-7.55,0-.42,0-1.32.78-1.28s.85.83.85,1.47c0,1.15,0,2.31,0,3.46S231.72,272.22,231.74,273.51Zm-8.2-30.07,0,.05,0,0Zm-1.16,48.16c0,.63-.36.87-.93.78s-.89-.37-.86-.95.45-.79,1-.79S222.4,291,222.38,291.6Zm.2-7.42h-.1c0,1.22,0,2.44,0,3.65,0,.74-.27,1.05-1,1.05s-.83-.38-.82-1c0-2.51,0-5,.08-7.53,0-.56.18-.94.87-.94s1,.41,1,1.08C222.57,281.74,222.58,283,222.58,284.18Zm0-10.19c0,.65-.08,1.1-.9,1.11s-.8-.64-.78-1.17c.13-2.6-.45-5.27.41-7.86a3.62,3.62,0,0,1,.13-.35l.25.11h0a1.71,1.71,0,0,1,1,1.68C222.64,269.67,222.58,271.83,222.57,274Zm.09-18.59c0,.63,0,1.26,0,1.89,0,.42.13.94-.12,1.3a1,1,0,0,1-.92.35c-.49,0-.72-.33-.74-.8,0-.31.09-.62.11-.93s0-.74,0-1.11a12.74,12.74,0,0,1,0-2.14.82.82,0,0,1,.94-.72.7.7,0,0,1,.77.71C222.68,254.43,222.67,254.92,222.66,255.4Zm.35-13.28c0,.17,0,.35,0,.53l0,.88a3.94,3.94,0,0,1,0,.84c-.14.48-1.15.66-1.56.58-.72-.15-.5-1.62-.49-2.11v-.13a24,24,0,0,1,.25-3.39,2.36,2.36,0,0,1,.34-1.1c.21-.27.81-.52,1.11-.25a.51.51,0,0,1,.09.13,2.9,2.9,0,0,1,.34,1.5C223,240.44,223,241.28,223,242.12Zm1.46,50.24a.78.78,0,0,1-1-.86c0-.5.15-.84.72-.85s1,.17,1,.82A.81.81,0,0,1,224.47,292.36Zm.77-11.93v3.67h0c0,1.15,0,2.3,0,3.44,0,.74-.28,1-1,1s-.69-.55-.69-1c0-2.37,0-4.74,0-7.11,0-.72.24-1.05,1-1S225.24,279.93,225.24,280.43Zm0-6.41c0,.63-.31.9-.9,1s-.81-.19-.8-.72c0-2.5.05-5,.17-7.52,0-.36,0-1.16.72-1.12s.8.7.8,1.29c0,1.15,0,2.3,0,3.45S225.25,272.8,225.26,274Zm.08-18.37a13.73,13.73,0,0,0,.07,1.93c.09.75-.21,1-.93,1.08s-.92-.39-.9-1c0-1.21,0-2.43,0-3.65,0-.79,0-1.42,1.09-1.39.89,0,.75.53.72,1.22S225.36,255,225.34,255.65Zm.43-11.67a4.74,4.74,0,0,1-1.92.35,31.91,31.91,0,0,0-.25-4.69,2.71,2.71,0,0,1,.4-2.15,1.86,1.86,0,0,1,1-.38.53.53,0,0,1,.49.18,1.05,1.05,0,0,1,.15.6c0,.52.07,1,.11,1.55.06.74,0,1.48,0,2.22A22.13,22.13,0,0,1,225.77,244Zm2.13,48.39c-.59,0-.93-.13-.94-.8s.1-1,.8-.94c.53,0,1,0,1,.66S228.56,292.34,227.9,292.37ZM227,280.3c0-.78.36-1,1-1s.69.55.69,1c0,1.15,0,2.3,0,3.45s0,2.59,0,3.88c0,.65-.28.86-.92.85s-.83-.27-.83-.89Q227,284,227,280.3Zm1.75-6.61c0,.6-.21.91-.86.95s-.9-.21-.89-.84c0-2.44,0-4.88.07-7.32,0-.55.2-1.52,1-1.47s.69.95.71,1.57c0,1.15,0,2.3,0,3.45Zm.16-20.46c0,1.35,0,2.71-.05,4,0,.65-.52.78-1,.83-.72.08-.8-.4-.8-.94,0-1.36.06-2.71,0-4.06,0-.89.52-1.16,1.15-1.22.85-.09.76.5.75,1.15Zm.23-14.93v.25c0,.8-.07,1.61-.09,2.42q0,.63,0,1.26c0,.08.05.88,0,.89a2.84,2.84,0,0,1-2,.37v-2.33c0-.47-.12-.94-.14-1.41s0-1,0-1.49c-.08-.71,0-1.25.64-1.63s1.5-.39,1.64.35A7.28,7.28,0,0,1,229.13,238.3Zm2.62,53.19c0,.61-.28.86-.88.89s-1-.24-1-1,.22-.91.86-.82S231.8,290.68,231.75,291.49Zm-1.11-34c-.6,0-.74-.37-.66-.9a11.79,11.79,0,0,0,0-2.52,6.83,6.83,0,0,1,.05-1.5c.05-.28.2-1.17.56-1.19a7.09,7.09,0,0,1,.92-.05c.52.05.21,2,.21,2.42,0,.77,0,1.55,0,2.33S231.55,257.52,230.64,257.51Zm1.48-14.65c-.05,0,0,0,0-.06A.08.08,0,0,1,232.12,242.86Zm.08-1c0,.67-1,1.12-1.54,1.21-.21,0-.5,0-.55-.22a12.88,12.88,0,0,1-.08-2c0-.64-.07-1.27-.05-1.91,0-.82.06-1.65.13-2.46a1,1,0,0,1,1-1c.92,0,1,.71,1,1.48C232.12,238.6,232.2,240.22,232.2,241.84Zm2,50.53c-.77.09-1-.31-1-1,0-.89.64-.73,1.2-.8s.87.23.88.86S234.89,292.46,234.18,292.37Zm1-12.09c.07,1.07,0,2.15,0,3.23h0c0,1.29,0,2.58,0,3.87,0,.83-.28,1.16-1.12,1.11s-.87-.53-.86-1.16c0-2.37.07-4.73,0-7.1,0-.82.13-1.39,1.1-1.43C235.64,278.75,235.13,279.72,235.17,280.28Zm0-26.23h0c0,.71,0,1.42,0,2.13s-.11,1-.78,1-1.19,0-1.18-.85c0-1.63,0-3.26.1-4.88,0-.74.69-.55,1.13-.62.79-.14.72.41.71.91C235.18,252.49,235.19,253.27,235.19,254.05Zm-1.68,11c.14-.36.25-.92.74-.94s.78.54.79.9c.09,2.8.12,5.59.12,8.38,0,.68-.62.7-1.11.76-.75.09-.78-.44-.78-1v-4.16C233.4,268.06,232.93,266.53,233.51,265.08Zm.67-23c-.81.1-1.07-.08-1-.81.11-1.9.21-3.81.38-5.71a1,1,0,0,1,.94-1c.59,0,.79.51.85,1,.08.76.17,1.53.24,2.21a1.78,1.78,0,0,1,0-.26l.15,1.82a.35.35,0,0,1-.07-.18C235.58,240.48,236.11,241.81,234.18,242.05Zm2.31-6.45c0-.81.15-1.86,1-1.88,1.08,0,1,1.11,1.12,2,.16,1.49,0,3,.18,4.49a.85.85,0,0,1-.35.87,15.22,15.22,0,0,1-2.22.58C236.33,239.3,236.42,237.46,236.49,235.6Zm-.21,16.19c-.12-1.11.37-1.72,1.36-1.72s.63.75.64,1.41c0,1.42.05,2.84,0,4.26,0,.71-.51.73-1,.76s-.88-.2-.88-.86A32.94,32.94,0,0,0,236.28,251.79Zm2,17.16c0,1.22,0,2.43,0,3.65,0,.73,0,1.23-.95,1.21-.79,0-.94-.35-.93-1,0-2.51,0-5,.06-7.51,0-.64.18-1.49.95-1.45s.85.82.84,1.49V269Zm-1,23.43c-.67,0-.81-.31-.88-.89-.09-.84.36-.91,1-.93s.94.17.82.84C238.38,292.14,238,292.38,237.31,292.38Zm.13-3.89c-.89,0-1.06-.37-1-1.19.07-2.52.06-5,0-7.57,0-.75.06-1.2,1-1.2,1.11,0,.83.73.84,1.31,0,1.3,0,2.6,0,3.89h.05v3.46C238.34,287.83,238.49,288.5,237.44,288.49Zm.88-11.06c.51.21,1.06-.08,1.86-.24C239.38,278.34,238.84,278.28,238.32,277.43ZM240,250.38c0-.27,0-.53.26-.7a2.57,2.57,0,0,1,.87-.2c.74-.17.82.29.83.85,0,1.5.09,3,.12,4.48,0,1-.8,1.13-1.5,1.16-1,0-.67-1.37-.65-2,0-1.11.16-2.28.09-3.39C240,250.51,240,250.45,240,250.38Zm0,29.38c0-.87.14-1.25,1.13-1.32,1.36-.1.88.8.91,1.39,0,1.15,0,2.3,0,3.45H242c0,1.22,0,2.44,0,3.66,0,.74,0,1.43-1,1.51s-1.08-.63-1.08-1.37C240,284.64,240,282.2,239.93,279.76Zm0-11H240c0-1.44-.07-2.87,0-4.3,0-.38.26-1.1.83-1.13s.81.54.88,1a54.27,54.27,0,0,1,.19,8.36c0,.89-.79.63-1.31.69-.77.09-.7-.48-.7-1Zm1.11,23.61c-.63,0-1.09,0-1.13-.85s.26-1,1-1,1.2-.06,1.18.82C242.12,292.05,241.8,292.37,241.06,292.38Zm-.45-51.86a1.12,1.12,0,0,1-.72-.12c.09-1,0-3.24,0-3.86h0a21.33,21.33,0,0,1,.16-2.4c.09-.62.34-1.37,1.12-1.38s.92.75,1,1.41c.07,1.51.06,3,.24,4.51S241.72,240.44,240.61,240.52Zm3.5,8.14c.63,0,1.16.06,1.16.88,0,1.64-.07,3.29-.05,4.93,0,.88-.69.83-1.17.93-.76.16-.74-.44-.74-1,0-.86,0-1.72,0-2.93,0-.36,0-1.08-.13-1.79S243.34,248.65,244.11,248.66Zm-.77,19.69h0c0-1.44-.06-2.88,0-4.31,0-.48.2-1.27,1-1.18a1.09,1.09,0,0,1,.84,1.13c.07,2.87.11,5.76.12,8.64,0,.71-.6.61-1.11.66-.68.07-.9-.2-.89-.84C243.35,271.09,243.34,269.72,243.34,268.35Zm-.06,18.88c0-1.37,0-2.73,0-4.1h0c0-1.29.07-2.59,0-3.88,0-.78,0-1.2.93-1.24s1.3.25,1.29,1.2c0,2.66,0,5.32,0,8,0,.95-.36,1.25-1.26,1.27S243.26,288,243.28,287.23Zm1.1,5.15c-1,.19-1-.37-1.09-1.1s.46-.92,1.05-1c.76-.06,1.2.19,1.21,1.07S245.11,292.5,244.38,292.38Zm-.47-52.68c-.69.14-.85-.1-.88-.45h0c0-.13,0-.29,0-.44v-.09c0-1.1.11-2.77.16-3.66h0a19.22,19.22,0,0,0,.22-2.13,1,1,0,0,1,1.1-1.08,1.05,1.05,0,0,1,.9,1.07c.1,1.08.14,2.16.18,2.77,0,1.26,0,2,0,2.84C245.61,239.76,244.63,239.54,243.91,239.7Z"/><path class="cls-7" d="M406.14,236.66c-9.25-2.95-18.52-5.87-27.74-8.9-.9-.3-1,.1-1.2.6a7.48,7.48,0,0,0-.18,1.9q0,15.23,0,30.45c0,10.3,0,20.6,0,30.89,0,1.58.52,1.87,1.95,1.88q12.85.06,25.7.31c1.54,0,2-.18,2-1.93-.09-16.69,0-33.37,0-50.06A2.53,2.53,0,0,1,407,240C408.32,238.32,408,237.27,406.14,236.66Zm-1.07,37.73c0,.55-.31.72-.83.71s-.86-.39-.86-1c0-1.15,0-2.3,0-3.45h0c0-1.16,0-2.31,0-3.46,0-.54.18-1.12.68-1.2.69-.12.72.62.79,1.06A49.62,49.62,0,0,1,405.07,274.39ZM405,255.67a13.47,13.47,0,0,1,.07,2.55c0,.61-.15.94-.82.89s-.95-.23-.94-.89c0-.85,0-1.7,0-2.74.72-.53-1.13-2.26.71-2.32S404.74,254.79,405,255.67Zm-2.08-16.76c0-.55.19-1,.79-1.08a1,1,0,0,1,1,.95c.16,1.77.24,3.56.34,5.34,0,.69-.38.86-1,.79s-1.19,0-1.22-.87-.06-1.43-.08-1.89C402.8,240.91,402.85,239.91,402.88,238.91Zm-3.27,29.28h.21v3.86h-.21ZM399,287.83c0,.58-.22.91-.92.8s-1.11-.05-1.05-.93c.07-1.29,0-2.58,0-3.87h0c0-1.22,0-2.43,0-3.65,0-.62,0-1.18.87-1.1.62.06,1.11.25,1.11,1C399,282.67,399,285.25,399,287.83Zm0-14.24c0,.71-.16,1.08-.93,1.07s-1.05-.28-1-1c0-2.43,0-4.86,0-7.29,0-.62.27-1.44,1-1.41s.77.79.78,1.37c0,1.36,0,2.71,0,4.06h.13C398.9,271.45,398.87,272.52,398.91,273.59Zm-1.29-21.75c.53.08,1.15.22,1.13,1s0,1.43,0,2.14h0c0,.71,0,1.43,0,2.14,0,.52,0,1.06-.7,1s-1.11-.25-1.11-1c0-1.43,0-2.85,0-4.28C396.93,252.38,396.86,251.73,397.62,251.84Zm-5,35.11c.1,1.45-.5,1.71-1.69,1.52-1-1-.51-2.29-.49-3.42,0-2-.45-4.08.33-6.06,1.4-.6,1.89-.12,1.84,1.37A63,63,0,0,0,392.61,287Zm0-17.36c0,1.15,0,2.3,0,3.45,0,.56.09,1.17-.82,1.15-.73,0-1.06-.34-1.06-1,0-2.51,0-5,0-7.53,0-.63.25-1.45.91-1.43s.88.89.92,1.52c.06,1.29,0,2.58,0,3.87Zm0-13.28c0,.57-.26.74-.78.69s-1.2,0-1.2-.86v-2.35h0c0-.72,0-1.43,0-2.14,0-.56,0-1,.76-.93.54.08,1.2,0,1.2.88C392.57,253.17,392.57,254.74,392.58,256.31Zm-2.3-16.82c.11-1.13.12-2.28.14-3.42,0-.66.08-1.46.81-1.51s1.15.84,1.18,1.51c.09,2,0,4,0,6C390.4,242.17,390.12,241,390.28,239.49Zm-2.84,29.24c.18-1.31-.29-2.83.29-4.3.15-.36.34-.72.68-.75s.62.33.71.68c.79,3,.28,6,.3,9,0,.66-.76.48-1.24.47-.7,0-.74-.51-.74-1Zm.64-18.67c.66,0,1.37.23,1.4,1,.06,1.57,0,3.14,0,4.7,0,.69-.48.76-1,.74s-.94-.29-.95-.9c0-.78,0-1.57,0-2.35h0c0-.64,0-1.29,0-1.92S387.15,250.07,388.08,250.06Zm-.45-1.52c.78-.47,1.39.31,2,0C389,249.45,388.39,249,387.63,248.54Zm.2-14.7c.88-.57,1.19.11,1.29.77.22,1.4.33,2.83.41,3.57,0,3.27-.26,3.64-1.74,2.87a2.22,2.22,0,0,1-.38-.18C386.85,240.35,387.2,234.24,387.83,233.84Zm-1.16,18.43h.22v2.86h-.22Zm-5.1,40.08c-.62.06-1.07,0-1.12-.83s.42-1,1.14-1,1,.24,1,1S382.26,292.44,381.57,292.35Zm-1.09-9.22v-3.86c0-.58,0-1.17.84-1.16s1.28.13,1.27,1c0,2.72,0,5.45,0,8.17,0,.78-.41.93-1.09.94s-1-.3-1-1C380.5,285.86,380.48,284.5,380.48,283.13Zm2.13-14.57c0,1.21,0,2.43,0,3.65,0,.54,0,1.06-.75,1s-1.38,0-1.37-.95c0-2.65,0-5.3.13-7.94,0-.49.16-1.45,1-1.4.66.05.81.89.85,1.36.13,1.41,0,2.85,0,4.28Zm0-16.34c0,.71,0,1.43,0,2.14s-.14,1-.84.91-1.23,0-1.23-.83c0-1.64,0-3.29,0-4.94,0-.5.21-.82.78-.72s1.32.14,1.3,1.07S382.62,251.43,382.62,252.22ZM382,239.68c-.8-.11-1.88,0-1.83-1.29.07-1.85.19-3.7.32-5.55a.91.91,0,0,1,.95-1,1.25,1.25,0,0,1,1.11,1.16,28.67,28.67,0,0,1,.23,2.93c0,1,0,1.7,0,2.42C382.71,239,383.11,239.85,382,239.68Zm.94,18.77.87-1.81C384,257.48,384.84,258.79,382.9,258.45Zm3.09-5.69h0c0,.72,0,1.44,0,2.16s-.09,1.13-1,1c-.62-.1-1.1-.18-1.08-1,0-1.44,0-2.88,0-4.32,0-.56-.14-1.18.83-1.09.73.08,1.27.18,1.24,1.08C386,251.32,386,252,386,252.76Zm0,34.67c0,.9-.45,1-1.21,1.05s-.92-.43-.91-1.09c0-1.36,0-2.73,0-4.1h0v-3.88c0-.55-.17-1.2.78-1.17s1.36.19,1.34,1.2C385.94,282.1,385.94,284.77,386,287.43Zm0,4.09c0,1-.66.83-1.31.88-.81.05-.92-.42-1-1-.05-1,.7-.83,1.3-.89C385.82,290.39,386.06,290.8,386,291.52ZM386,273c0,.72-.72.42-1.19.42s-.92-.19-.9-.86c0-1.36,0-2.73,0-4.09h0c0-1.29,0-2.58,0-3.87a1.17,1.17,0,0,1,.76-1.19c.63-.19.93.32,1,.81C386.37,267.15,385.9,270.1,386,273Zm.1-33.84c-.06.53.35,1.49-.79,1.3-.76-.13-1.82-.06-1.75-1.35.1-1.77.19-3.54.31-5.31,0-.52.19-1,.82-1.07a.94.94,0,0,1,1,.9c.2,1.26.33,2.53.49,3.81h-.09A16.43,16.43,0,0,1,386.06,239.18Zm1.38,39.47c0-.32,0-.64,0-1h0c-1.74-1.53-.63-1.92.87-2.16h0c.38-.4.79-.88,1.37-.56.14.09-.06.78-.1,1.19l-1.27-.63h0a2.17,2.17,0,0,0-.87,2.16h0c.59,0,1.21-.06,1.3.78.91.15.78.86.78,1.5,0,2.44,0,4.88,0,7.32,0,.6.09,1.44-.71,1.4s-1.43-.25-1.38-1.44C387.54,284.39,387.44,281.52,387.44,278.65Zm1,13.74c-.67,0-1.08-.2-1-1s.39-.9,1-.89,1.07.14,1.05.93S389.16,292.4,388.47,292.39Zm3.25.05c-.51.9-1.3.93-2.21.69.33-.54,1.13-.15,1.35-.77-.23-.72-.63-1.54.5-1.83.4-.1,1-.16,1.23.47S392.7,292.38,391.72,292.44Zm1.78-50.74c.11-1.85.2-3.7.33-5.55a.81.81,0,0,1,.86-.79,1,1,0,0,1,.95,1c.18,1.41.27,2.84.38,4.14-.19,1.09.69,2.86-1.63,2.2C393.85,242.55,393.47,242.33,393.5,241.7Zm.49,38.11c0-.61.21-.92.88-.9s1.13.16,1.12.94v4.08h0c0,1.15,0,2.29,0,3.44,0,.73,0,1.26-1,1.19-.69-.05-1-.27-1-1C394,285,394,282.39,394,279.81Zm-.07-25.55a12.5,12.5,0,0,1,0-1.5c.08-.54-.4-1.4.69-1.44.89,0,1.27.44,1.25,1.33,0,1.29,0,2.58,0,3.86,0,.6,0,1.22-.84,1.1-.56-.07-1.16-.2-1.15-1S393.92,255.05,393.92,254.26Zm0-10.09c0-.31.16-.51.58-.5l.36.4a3.14,3.14,0,0,1-.59.46C394,244.63,393.93,244.38,393.94,244.17Zm.71,20.09c1.37.95,1.33,2.1,1.32,3.24,0,1.94,0,3.88,0,5.81,0,.53,0,1.07-.71,1-.46,0-1.26.15-1.24-.51C394.13,270.69,393.34,267.46,394.65,264.26Zm.49,28.25c-.59-.08-1.14-.23-1.17-1s.26-1,1-1,1.16.07,1.05.88C396.09,292.1,396,292.63,395.14,292.51Zm1.44-50a24.86,24.86,0,0,1,.24-5.38.92.92,0,0,1,.79-.89c.58-.05.73.53.8.86.2,1.12.27,2.27.37,3.23s0,1.47,0,2.12.14,1.25-.81,1.11C397.31,243.41,396.63,243.34,396.58,242.46Zm1.5,49.93a1,1,0,0,1-1.2-1.11c0-.81.57-.61,1-.65.6,0,1.16,0,1.1.86A.83.83,0,0,1,398.08,292.39Zm1.74-7.81h-.22v-4.64h.22Zm.13-41.52a36.3,36.3,0,0,1,.4-5.31c0-.37.21-.69.67-.64s.55.38.71.7c.6,1.15.16,2.4.37,3.41a14.33,14.33,0,0,1,0,1.88c-.06.44.42,1.35-.63,1.12C400.85,244.1,400,244.14,400,243.06Zm1.24,9.55c.64,0,.91.3.91.92s0,1.44,0,2.16h0c0,.65,0,1.3,0,1.94,0,.39.16.94-.49,1s-1.17-.23-1.19-.94c-.05-1.36,0-2.73,0-4.1C400.38,253,400.48,252.59,401.19,252.61Zm-.74,17.79h0c0-1.15-.05-2.31,0-3.45,0-.61.05-1.47.93-1.43.66,0,.77.76.78,1.35.06,2.37.1,4.75.16,7.12,0,.56-.05,1-.75,1s-1.12-.21-1.12-1Zm1.14,22c-.66.05-.85-.25-.88-.87s.12-1,.77-.86,1,.13,1,.81S402.19,292.34,401.59,292.38Zm.44-3.48c-1,0-1.61-.31-1.58-1.46.06-2.27.05-4.55.06-6.83,0-.65-.1-1.29.9-1.3s1,.54,1,1.25c0,1.34.08,2.69.13,4l.78-.86c0-1.07,0-2.14.06-3.21,0-.38-.12-.92.56-.9.49,0,1.1,0,1.11.68,0,2.57,0,5.14,0,7.71,0,.72-.69.6-1.08.83h0A1.71,1.71,0,0,1,402,288.9Zm3.1,2.63c0,.62-.32.89-.92.83s-.82-.45-.8-1,.39-.67.85-.69C404.87,290.63,405.18,290.89,405.13,291.53Zm.24-30.47a1.4,1.4,0,0,1,.66-1.94C405.72,260,405.55,260.55,405.37,261.06Z"/><path class="cls-7" d="M270.24,259c0-10.87,0-21.74,0-32.61,0-.7.55-1.73-1-1.9-5.53-.63-11-.75-16.43.86-1.89.56-4,.86-2.8,3.7a2.4,2.4,0,0,1,0,.85c0,5.61-.12,11.21-.11,16.82,0,15,.06,29.94.05,44.91,0,1.34.24,1.86,1.77,1.82q8.19-.16,16.39,0c1.65,0,2.13-.33,2.12-2C270.19,280.55,270.24,269.75,270.24,259Zm-14.35,11.31c.08-2.07,0-4.15,0-6.23,0-1.31,0-3,1.59-3,1.29,0,1.59,1.56,1.5,2.89-.07,1,0,2,0,3s0,2.15,0,3.22,0,1.86-1.54,1.88S255.84,271.46,255.89,270.26Zm3.05-19.2c0,1.07.3,2.07-1.52,2.05S256,252,256,251c0-.43,0-.87,0-1.3,0-.72.06-1.44,0-2.16-.13-1.18.41-1.44,1.49-1.43s1.59.33,1.52,1.48S258.93,249.91,258.94,251.06Zm-4.13,19.6a1,1,0,0,1-.61,1.17,2.3,2.3,0,0,1-.78.11,1.69,1.69,0,0,1-1-.25c-.39-.28-.3-.71-.25-1.13.13-1.17,0-2.35.09-3.52,0-.6,0-1.21,0-1.81s0-1.22.06-1.83c.07-.81.13-2,1.17-2s1.19,1.11,1.2,2c0,1.19.11,2.38.06,3.57A19.54,19.54,0,0,0,254.81,270.66Zm-.15-21.05c0,.79-.06,1.59,0,2.37.11,1.1-.54,1.08-1.33,1.09s-1.15-.17-1.11-1.08c.08-1.57.05-3.15,0-4.72,0-.88.33-1.12,1.12-1.14s1.43.05,1.34,1.12C254.61,248,254.66,248.82,254.66,249.61Zm-2.72-14.24c0-.79,0-1.57,0-2.54a34.14,34.14,0,0,1,.29-3.45,1.21,1.21,0,0,1,1.33-1.14c.74.11.83.77.86,1.32.08,1.92.08,3.84.16,5.76,0,1.27-.85,1.27-1.72,1.39C251.6,236.9,252,236,251.94,235.37Zm2.84,55.91c-.17.83-.84.51-1.37.55s-1-.08-1.12-.87c-.14-1,.42-1,1.07-1.16.07-.76.36-1.31,1.39-1.22l-1,1.21C254.75,289.86,254.93,290.49,254.78,291.28Zm.26-4.09c0,.14-.28.28-.42.42-1.87.34-2.71-.24-2.49-2.33a29.64,29.64,0,0,0,0-6c-.2-2,.5-2.64,2.35-2.36.19.18.55.36.55.55C255.09,280.69,255.07,283.94,255,287.19Zm1-3.33c0-2.21-.54-4.43.22-6.61,2.7-.53,2.73-.51,2.73,2,0,2.3-.06,4.6,0,6.9,0,1.07-.17,1.57-1.39,1.54-1,0-1.5-.2-1.47-1.15,0-.1,0-.2,0-.31A13.3,13.3,0,0,0,256,283.86Zm1.73,8c-.8.1-1.4.05-1.4-1s.51-1.07,1.23-1,1.48-.36,1.51.92C259.11,291.81,258.55,291.89,257.75,291.82Zm-.17-55.5c-2.36,0-1.47-1.49-1.62-2.57a3,3,0,0,1,0-.42h0c.07-1.27.09-2.56.23-3.83.09-.83.5-1.59,1.46-1.54s1.28.79,1.35,1.64c.12,1.41.26,2.83.32,4.24C259.34,235,259.8,236.31,257.58,236.32Zm3.28,46.1h0c0-1.3.05-2.6,0-3.89s.19-1.68,1.55-1.61,1.8.28,1.74,1.68c-.12,2.52-.12,5,0,7.56.05,1.34-.55,1.5-1.67,1.51s-1.68-.32-1.57-1.58S260.86,283.64,260.86,282.42Zm3.2-32.81a16.24,16.24,0,0,0,0,1.71c.12,1.19-.13,1.81-1.57,1.83s-1.76-.68-1.65-1.94c.08-.92,0-1.86,0-2.79,0-1.14-.49-2.4,1.63-2.36,2,0,1.55,1.17,1.56,2.26C264.06,248.75,264.05,249.18,264.06,249.61Zm-3.17,13.26a1.78,1.78,0,0,1,1.44-1.88c1-.05,1.65.85,1.68,1.88.07,2.72.05,5.44.06,8.16,0,1.32-1,.91-1.71,1s-1.5.17-1.5-.95c0-1.36,0-2.72,0-4.08S260.82,264.23,260.89,262.87Zm3.22,28.1c-.07,1.37-1.07.8-1.74.88-.85.1-1.62,0-1.53-1.15s1.05-.86,1.76-.92C263.48,289.71,264.17,289.8,264.11,291Zm-1.65-54.64c-1.55-.17-1.92-.54-1.76-2,.17-1.56.22-3.13.31-4.69a1.76,1.76,0,0,1,1.71-1.84c1.15-.07,1.61.8,1.71,1.79.14,1.28.17,2.56.24,3.84C264.66,235,265.2,236.63,262.46,236.33Z"/><path class="cls-7" d="M374.43,225.76c-5.84-2.07-11.82-2.06-17.87-1.33-1.09.13-1,.67-1,1.44,0,9.83-.16,19.68.09,29.51.15,5.73,0,11.45,0,17.18,0,6.39-.05,12.79-.11,19.19,0,.94,0,1.64,1.31,1.62,5.9-.06,11.8-.05,17.7,0,1,0,1.19-.35,1.19-1.25-.05-9.85-.06-19.71-.09-29.57-.48,0-1,.06-1.18-.62-.21-1,.58-1.17,1.17-1.53v-5.2c-.72-.39-.89-1-.72-1.92l.71,1q0-12.09.08-24.18c0-.65-.23-1.46.08-1.91C377.08,226.35,375.64,226.19,374.43,225.76Zm-3,3.53a1,1,0,0,1,1.08-1.08,1.3,1.3,0,0,1,1.05,1.22c.17,1.62.32,3.25.48,4.87-.07,2.57-.39,2.91-2.12,2.26a1.11,1.11,0,0,1-.81-1.08C370.9,233.4,371.36,231.36,371.44,229.29ZM370.92,263c.16-.93.74-1.74,1.63-1.59s1,1.07,1,1.94c0,2.3,0,4.59,0,6.89s-.33,2.34-2.51,1.37h-1a8,8,0,0,1-1,.36c-1.74.41-2.6.06-2.32-2.06a54.36,54.36,0,0,0,.21-6.39c0-1.13.2-2.4,1.39-2.56s1.49,1.09,1.83,2Zm1.75-8.92c.59-.33.68.13.51.62-.06.2-.13.39-.35,1C372.75,254.8,372.24,254.3,372.67,254.06Zm-2.59-4.7c0,1,0,1.55,0,2.12,0,.94.16,1.8-1.36,1.69-1.3-.1-2-.36-1.79-1.81a22.81,22.81,0,0,0,0-3.41c0-1.06-.17-1.9,1.45-1.87,1.44,0,1.67.57,1.55,1.77A6.63,6.63,0,0,0,370.08,249.36Zm-3.46-16.88c.07-.79.14-2,.3-3.21a1.35,1.35,0,0,1,1.39-1.35,1.33,1.33,0,0,1,1.26,1.26,47.59,47.59,0,0,1,.36,6.19c0,1.55-1.43.62-2.19.86s-1.18-.11-1.13-1S366.62,233.69,366.62,232.48Zm-5.53,2.58c.15-1.85.21-3.72.41-5.57a1.53,1.53,0,0,1,1.69-1.56,1.71,1.71,0,0,1,1.68,1.66c.11,1.36.2,2.71.26,3.57,0,3.23,0,3.18-2.8,3.1C361.4,236.23,361,236,361.09,235.06Zm.71,12.5c-.14-1.23.5-1.42,1.54-1.42s1.7.07,1.61,1.34,0,2.31-.05,3.45c-.07.91.58,2.15-1.37,2.18s-1.71-.92-1.66-2.1a6.44,6.44,0,0,0-.05-.92A22.67,22.67,0,0,0,361.8,247.56ZM363.16,261c1.13,0,1.85,1.11,1.77,2.47s0,2.44,0,3.66h0c0,1.08,0,2.16,0,3.23,0,.83.26,1.76-1.22,1.63-1.12-.09-1.92-.11-1.85-1.61.09-2.29,0-4.59,0-6.89C361.79,262.36,362.43,261,363.16,261Zm1.74,21.2c0,1.22,0,2.44,0,3.65s-.1,1.8-1.56,1.81-1.5-.8-1.49-1.88c0-2.43.07-4.86,0-7.3,0-1.13.3-1.46,1.45-1.41s1.75.14,1.62,1.49S364.9,281,364.9,282.23Zm-1.46,9.6c-.65-.17-1.65.31-1.6-1.06.06-1.56,1.16-.82,1.85-.95.88-.17,1.31.14,1.26,1.12C364.9,292.12,364.12,291.85,363.44,291.83ZM362,255.9c2.2-.75,4-1,5.86,0Zm6,36c-.81.09-1.4,0-1.41-1s.7-1,1.41-1,1.5,0,1.47,1S368.82,292,368,291.85Zm1.65-13.43a38.41,38.41,0,0,0,0,3.87c0,1.29,0,2.58,0,3.87.07,1.08-.21,1.47-1.4,1.52-1.36.05-1.31-.65-1.3-1.58,0-2.58,0-5.16,0-7.74,0-.92,0-1.51,1.23-1.37C369.14,277.1,369.81,277.16,369.68,278.42ZM372,289.16a1.67,1.67,0,0,1-2.06-.52C370.78,288.43,371.29,288.87,372,289.16Zm.45,2.52c-.58-.16-1.49.43-1.53-.84s.67-1,1.38-1,1.3-.14,1.26.88C373.55,291.5,373.38,292,372.47,291.68Zm-.36-4c-1.34.06-1.11-.72-1.1-1.5,0-1.22,0-2.43,0-3.65s0-2.57,0-3.86c0-1,.13-1.55,1.36-1.58s1.21.63,1.2,1.46c0,2.58-.07,5.15,0,7.72C373.62,287.45,373.15,287.62,372.11,287.67Zm.3-34.54c-.86,0-1.52,0-1.42-1.21.13-1.63.1-3.27.13-4.9,0-1,.73-.85,1.37-.88s1.12.07,1.09.89,0,1.86,0,2.79h0a15.27,15.27,0,0,0,0,2.14C373.75,253,373.28,253.15,372.41,253.13Zm-.23-8,2.21.21C373.58,245.72,372.78,245.88,372.18,245.14Zm2.47,12a1.5,1.5,0,0,1,0-1.56C375,256,374.9,256.45,374.65,257.12Z"/><path class="cls-7" d="M353.45,212.34c-2.12-.14-4,.66-6,.92a46.75,46.75,0,0,1-6,.06h-62.9c-.57,0-1.37.13-1.66-.18-1.46-1.55-3.29-.77-4.82-.64-3,.25-.62,2.75-1.34,4-.1.16,0,.43,0,.64-.25,1.41.3,1.78,1.73,1.77,13.47-.05,26.95,0,40.42,0h37.4c4.93,0,4.87,0,4.89-4.87C355.11,212.69,354.74,212.42,353.45,212.34Zm.92,4.79a4.29,4.29,0,0,1,0-2.91Z"/><path class="cls-7" d="M326.08,282.26c.21,2.79,0,5.61,0,8.42-.05,3.72.55,4.22,4.24,3.77,1-.12,1.35-.39,1.31-1.43-.08-2.38,0-4.75,0-7.13h0c0-2.23-.11-4.47,0-6.69s.53-4.39.48-6.62a3.79,3.79,0,0,1,3.37-3.57,3.63,3.63,0,0,1,3.41,3.27c-.07,2.53.48,5,.52,7.48.07,3.82,0,7.63,0,11.45s-.44,3.15,3.36,3.28c1.49,0,2.21-.52,2.18-2.16-.07-4.46,0-8.92,0-13.39a2.14,2.14,0,0,0-.2-1.23,7.63,7.63,0,0,1-1.22-7.27c1.22-4.54-.51-8.3-4.15-9.41-3.41-1-6.94-1.24-9.87,1.14s-2.57,5.83-1.88,9.17c0,.21,0,.46.09.64a3.21,3.21,0,0,1-.22,3A14.85,14.85,0,0,0,326.08,282.26Z"/><path class="cls-7" d="M281.23,278.83a7.27,7.27,0,0,0-.2.95,39.93,39.93,0,0,0,0,6.47c0,2.11,0,4.23,0,6.35,0,2.85,2.1,1.6,3.41,1.86s2-.29,1.94-1.85c-.07-6.74-.22-13.5.64-20.22.21-1.64,1.73-3.34,3.29-3.37a3.59,3.59,0,0,1,3.38,3.28c-.06,2.85.68,5.63.76,8.44.06,2.1,0,4.19,0,6.28,0,1.91,0,3.8-.06,5.72,0,1.26.24,1.92,1.66,1.72.78-.1,1.58,0,2.37,0a1.18,1.18,0,0,0,1.26-1.41c-.53-5.6,1.22-11.37-1.06-16.84-1-2.34-.39-4.55,0-6.87.61-4-.78-7.12-4.34-8.28a13.8,13.8,0,0,0-5.54-.55c-5.19.47-7.22,4.69-6.49,8.87a14.71,14.71,0,0,1,.38,5.48C282.26,276.2,281.6,277.47,281.23,278.83Z"/><path class="cls-7" d="M304.26,294.16c1.46-.65,2.95.16,4.42-.06h0c-.24-5.34.39-10.7-.35-16-.07-.55.3-.74.77-.81.91-1.62.27-3.39.46-5.07a3.64,3.64,0,0,1,3.29-3.15,3.13,3.13,0,0,1,3.29,2.81c.17,2.65.63,5.26.73,7.89.14,3.89,0,7.78,0,11.67,0,3.35-.73,3,3.09,3.1,1.7.05,2.26-.54,2.23-2.24-.1-4.39,0-8.78,0-13.17,0-.43.14-1-.07-1.27-1.89-2.63-1.65-5.39-1-8.38.76-3.4-.65-6.71-3.07-7.88a11.52,11.52,0,0,0-10-.13,5.37,5.37,0,0,0-3.26,4.69,14.69,14.69,0,0,0,.29,5.36A9.13,9.13,0,0,1,305,275c-.18,1.56-1.56,2.43-1.52,4,.1,4.46,0,8.93,0,13.39C303.54,293,303.25,293.88,304.26,294.16Z"/><path class="cls-7" d="M353.14,220.22c-13.39-.06-26.78-.05-40.17-.05H273.88c-.8,0-1.59.09-2.38,0s-.84.34-.72.91c.24,1.12.36,2.13,2,2.13q40.07-.08,80.13,0c1.77,0,2.07-.93,2.1-2.23C355.08,219.43,353.77,220.22,353.14,220.22Z"/><path class="cls-7" d="M247.06,294.66c-7.62.2-15.25.26-22.87.4-5.15.09-5.1.12-5,5.35,0,1.23.35,1.57,1.57,1.55,4.46-.07,8.92,0,13.38,0h11.44c3.21,0,3.21,0,3.21-3.31a17.27,17.27,0,0,1,0-2.16C249,295.05,248.54,294.63,247.06,294.66Z"/><path class="cls-7" d="M405.1,295.12c-4.38.11-8.77.05-13.16.05v-.24c-1.58,0-3.16,0-4.74,0s-3.17-.05-4.75-.09c-5.58-.14-5.52-.14-5.48,5.51,0,1.42.5,1.63,1.73,1.62,7.7,0,15.4,0,23.09,0,4.87,0,4.87-.05,4.82-5a3.17,3.17,0,0,1,0-.43C406.66,295.47,406.31,295.09,405.1,295.12Zm-26.58,6.2a5.27,5.27,0,0,1-.7-.46l.54-.3.52.63C378.76,301.24,378.6,301.36,378.52,301.32Z"/><path class="cls-7" d="M375.75,296.54c.24-1.62-.53-1.89-1.92-1.87-4.25.06-8.49,0-12.74,0-5.74,0-5.69,0-5.57,5.77,0,1.29.48,1.51,1.63,1.48,2.8-.07,5.61,0,8.41,0h4.75c1.72,0,4,.6,5-.26C376.54,300.65,375.5,298.29,375.75,296.54Z"/><path class="cls-7" d="M268.78,294.68c-4.51.07-9,0-13.55,0-5.5,0-5.5,0-5.19,5.51,0,.14,0,.29,0,.43,0,1,.36,1.36,1.4,1.33,2.88-.07,5.76,0,8.63,0h4.53c5.88,0,5.84,0,5.64-5.87C270.22,294.9,269.89,294.67,268.78,294.68Z"/><path class="cls-7" d="M380.39,222.9c1.87.47,3.68,1.17,5.52,1.76l21.34,6.77c0-1.9,0-3.63,0-5.35,0-.59-.49-1.14-.72-.53-.53,1.42-1.21.54-1.83.34-4.55-1.49-9.14-2.89-13.63-4.56-4.22-1.57-8.75-2.35-12.77-5a32.21,32.21,0,0,1,0,3.69C378.08,221.72,378.79,222.5,380.39,222.9Z"/><path class="cls-7" d="M247.4,221.58c-.55-1.61.47-3.41-.61-5a3,3,0,0,1-1.62,1.22c-8,2.67-16,5.35-24,8.11-1,.36-1.73.43-2.42-.59v6c9.13-2.89,18.17-5.74,27.22-8.62C246.59,222.56,247.27,222.37,247.4,221.58Z"/><path class="cls-7" d="M361.24,212.11c-5.21.27-5.16.33-4.93,5.54.05,1.15.4,1.25,1.38,1.12,6.55-.8,13-.45,19.34,2.31V218.2c0-2.82-1-4.14-3.64-4.84A39.8,39.8,0,0,0,361.24,212.11Z"/><path class="cls-7" d="M269.29,218.59c-.34.47-.77.17-1.16.13-6.53-.66-13-.47-19.35,2.42,0-1.16,0-2,0-2.87,0-2.77,1-4.22,3.68-4.91a43.86,43.86,0,0,1,16-1,1.79,1.79,0,0,1,.76.24A29.73,29.73,0,0,1,269.29,218.59Z"/><path class="cls-7" d="M252.56,212c.85-.08,1.68-.34,2.53-.5,5.21-1,10.46-.57,15.71-.32,1.51,0,3,0,4.54,0,.45,0,1.08.23,1.22-.51s.25-1.32-.49-1.71a13.68,13.68,0,0,0-1.73-.82c-7.58-2.83-15.08-2-22.55.46-1.88.64-1.42,2.27-1.19,3.39S251.88,212,252.56,212Z"/><path class="cls-7" d="M351.06,211.12c2.15.08,4.31,0,6,0,6.09-.52,11.66-.53,17.1,1.16.37.11.82.32,1.12-.2a2.91,2.91,0,0,0-1.41-3.59,36.23,36.23,0,0,0-15-2.13,28.12,28.12,0,0,0-8.26,2.05c-1.07.44-1.46,1-1.28,2.08S350.48,211.1,351.06,211.12Z"/><path class="cls-7" d="M245.45,227.22c2-.62,2.37-1.7,2-3.58l-4.12,1.29c-8.5,2.7-17,5.43-25.52,8.08-1.33.42-1.71,1.08-1.32,2.36.46,1.52,1.42.56,2.07.36C227.5,232.91,236.44,230,245.45,227.22Z"/><path class="cls-7" d="M407.93,233c-9.8-3.13-19.61-6.23-29.53-9.37-.15,2.8-.15,2.82,2.15,3.6s4.87,1.61,7.32,2.38c6.61,2.07,13.24,4.06,19.8,6.24,1.79.59,1.74-.21,1.81-1.45S408.62,233.22,407.93,233Zm.56,1.7a1.26,1.26,0,0,1-.61-.46c-.12-.18,0-.37.38-.37a2.12,2.12,0,0,1,.53.45A.27.27,0,0,1,408.49,234.7Z"/><path class="cls-7" d="M279.52,299.38c.51,0,1,0,1.52,0h64.83c.55,0,1.23.16,1.28-.71s-.73-.65-1.23-.74a3.42,3.42,0,0,0-.64,0l-64.41,0h-1.29c-.55,0-.75.28-.72.8A.56.56,0,0,0,279.52,299.38ZM345,298.6a4.36,4.36,0,0,1-2.91,0Zm-16.73-.08h3.27v.21h-3.29Zm-7.95.07-.08.22H297.17v-.22Zm-30.1-.07h2.43v.21h-2.47Zm-7.49.24h-3A3.76,3.76,0,0,1,282.73,298.76Z"/><path class="cls-7" d="M346.79,300.83c-.31-.26-1-.15-1.47-.15q-32.51,0-65,0c-.52,0-1.47-.46-1.43.68,0,.94.84.57,1.32.57q20.31,0,40.61-.07c-.33-.74.06-.83.69-.83q12.06,0,24.12,0c.6,0,1,.06.71.82C347.57,302,347.43,301.39,346.79,300.83Z"/><path class="cls-7" d="M374.69,221.54c-4.67-1.73-9.51-2-14.41-1.8-3.43.12-3.43.07-4.37,3.42,10.82-.82,13.52-.55,20.92,2.06C377.23,222.46,377.22,222.48,374.69,221.54Z"/><path class="cls-7" d="M256.14,223.22c4.47-.87,9-.45,13.58-.15-.72-3.23-.72-3.25-4-3.31-2.16,0-4.32-.13-6.47,0a28.15,28.15,0,0,0-9.66,2.46,1.65,1.65,0,0,0-.8,2.41c.25.66,1.12.15,1.8-.07A47,47,0,0,1,256.14,223.22Z"/><path class="cls-7" d="M275,294.63c-3.51.12-3.52,0-3.55,3.52a13.93,13.93,0,0,1,0,1.94c-.23,1.56.47,1.92,1.91,1.92,4.16,0,4.16.05,4.15-4a3.51,3.51,0,0,1,0-.65C277.89,295.34,277.18,294.56,275,294.63Z"/><path class="cls-7" d="M357,205.36a34.06,34.06,0,0,1,10.08.11c1.51.2,2.12-.65,1.55-2.07a2.07,2.07,0,0,0-1.81-1.34l-4.7-.56a20.51,20.51,0,0,0-4.5.54c-1.33.22-1.75,1.26-1.74,2.55C355.85,205.5,356.34,205.46,357,205.36Z"/><path class="cls-7" d="M352.17,294.66c-3.72.09-3.72,0-3.74,3.65a8.14,8.14,0,0,1,0,1.71c-.34,1.73.49,2,2,1.94,3.86-.08,3.87,0,3.88-3.92a7.92,7.92,0,0,1,0-1.29C354.6,295,353.81,294.62,352.17,294.66Z"/><path class="cls-7" d="M259.16,205.41a30,30,0,0,1,9.65,0c.36.07.8.23,1-.38a2.27,2.27,0,0,0-1.57-3c-1.42-.22-2.85-.35-4.31-.52-1.7.19-3.41.34-5.12.57s-1.72,1.48-1.62,2.74C257.36,206.49,258.61,205.48,259.16,205.41Z"/><path class="cls-7" d="M306,226a2.45,2.45,0,0,1,1.68,2.92,2.13,2.13,0,0,0,.24,1.39c.2-.57.43-1.15,1.2-1a1.52,1.52,0,0,1,1.21,1.11,6.44,6.44,0,0,0,.28-1.71c.07-2.33,1.18-3.11,3.42-2.5a2.18,2.18,0,0,1,.72-1.57H307C307.28,225.61,306.61,225.76,306,226Z"/><path class="cls-7" d="M314.33,226.23l-.29-.08a2.18,2.18,0,0,1,.72-1.57A2.84,2.84,0,0,1,314.33,226.23Z"/><path class="cls-7" d="M310.34,230.36a5.41,5.41,0,0,1-.27.77c-.08-.63-.28-1.32-.91-1.48s-.65.68-1,1a2.07,2.07,0,0,1-.27-.41c.2-.57.43-1.15,1.2-1A1.52,1.52,0,0,1,310.34,230.36Z"/><path class="cls-7" d="M306,226a5.35,5.35,0,0,0-.77-.26c.41-.64,1.67,0,1.73-1.14C307.28,225.61,306.61,225.76,306,226Z"/><path class="cls-7" d="M344.49,301.47q-10.92,0-21.86,0c-.63,0-1.3-.15-1.82.38h25.52C345.79,301.33,345.12,301.47,344.49,301.47Z"/><path class="cls-7" d="M345.62,301q-12.06,0-24.12,0c-.63,0-1,.09-.69.83.52-.53,1.19-.38,1.82-.38q10.94,0,21.86,0c.63,0,1.3-.14,1.84.37C346.65,301.08,346.22,301,345.62,301Z"/><path class="cls-7" d="M281.79,296.52h17C297.25,295.44,283.51,295.41,281.79,296.52Z"/><path class="cls-7" d="M256.74,200.56c.12-1.77.36-3.53.37-5.34-2.12,1.79-3.54,3.84-3.34,7C254.82,201.3,256.64,202.14,256.74,200.56Z"/><path class="cls-7" d="M320.17,296.68c.38,0,.95.22,1-.42s-.44-.56-.87-.56H305.64c-.35,0-.79,0-.83.43-.07.68.5.54.89.54h7.12C315.27,296.69,317.72,296.7,320.17,296.68Z"/><path class="cls-7" d="M369,198.67c-.26,2.39.87,3.21,3.18,3.26.06-3.06-1.6-5.17-3.85-7.3C368.65,196.17,369.17,197.45,369,198.67Z"/><path class="cls-7" d="M353,201.58c.89,0,2.35.26,2.39-1.33a44.62,44.62,0,0,1,.83-5.55,9.59,9.59,0,0,0-3.62,5.15C352.45,200.41,351.72,201.51,353,201.58Z"/><path class="cls-7" d="M272.75,201.58c1,0,.6-1.17.46-1.66a8.92,8.92,0,0,0-3.51-5,41.6,41.6,0,0,1,.6,5.33C270.36,201.79,271.84,201.6,272.75,201.58Z"/><path class="cls-7" d="M328.27,295.72c-.39,0-.91-.11-.92.56,1.27.15,2.59-.35,3.82.33h11.25v-.78Z"/><path class="cls-7" d="M274.43,206.64c.18-2.4-.55-3.33-3.29-4C271.07,205.84,271.07,205.84,274.43,206.64Z"/><path class="cls-7" d="M253.6,206.72c2.48-.57,2.55-.6,2.22-3.84a3.23,3.23,0,0,0-3.31,2.74C252.33,206.39,252.42,207,253.6,206.72Z"/><path class="cls-7" d="M351.55,206.67c.75.42,2.82-1,3.05-2-.25-.58.27-1.4-.53-1.83-1.82,0-2.27,1.45-2.84,2.72A.88.88,0,0,0,351.55,206.67Z"/><path class="cls-7" d="M370.16,203.44c-.93.43-.29,1.22-.21,1.87.2,1.86,1.83.92,2.74,1.4a3,3,0,0,1,.46-1.71c-.06-.57-.65-.71-.92-1.1A1.55,1.55,0,0,0,370.16,203.44Z"/><path class="cls-7" d="M308.87,278.88c-.05,5.07.31,10.14-.18,15.21.55-.7.25-1.51.26-2.27.08-4.86.11-9.71.16-14.57C308.68,277.74,308.87,278.31,308.87,278.88Z"/><path class="cls-7" d="M308.34,278.06c.74,5.33.11,10.69.35,16,.49-5.07.13-10.14.18-15.21,0-.57-.19-1.14.24-1.63C308.64,277.32,308.27,277.51,308.34,278.06Z"/><path class="cls-7" d="M279.94,296.72c.48-.05,1.06.06.91-.69a1.29,1.29,0,0,0-1.37-1.35c-.77,0-.61.6-.67,1.06C278.69,296.65,279.19,296.81,279.94,296.72Z"/><path class="cls-7" d="M345.81,296.69c.59-.06,1.36.3,1.38-.79,0-.64-.08-1.14-.94-1.24A1.3,1.3,0,0,0,345,295.8C344.94,296.39,345.1,296.76,345.81,296.69Z"/><path class="cls-7" d="M375.66,262.55c0-.72,0-1.43,0-2.15C375.25,261.12,374.73,261.84,375.66,262.55Z"/><path class="cls-7" d="M374.48,261.93c.14.68.7.59,1.18.62-.93-.71-.41-1.43,0-2.15C375.06,260.76,374.27,261,374.48,261.93Z"/><path class="cls-7" d="M247.51,217.61a26.34,26.34,0,0,1-.11,4c.61-1.59.23-3.23.21-4.85,0-.69-.49-.44-.82-.1C247.56,216.57,247.52,217.13,247.51,217.61Z"/><path class="cls-7" d="M247.4,221.58a26.34,26.34,0,0,0,.11-4c0-.48.05-1-.72-1C247.87,218.17,246.85,220,247.4,221.58Z"/><path class="cls-7" d="M321.79,225.61l.2-.15,0-.08c.75-1.49,2.24-.07,3.18-.81h-3.48A3.45,3.45,0,0,1,321.79,225.61Z"/><path class="cls-7" d="M325.14,224.57c-.78,1.15-2.25-.33-3,.8l-.12.09,0-.08C322.71,223.89,324.2,225.31,325.14,224.57Z"/><path class="cls-7" d="M321.79,225.61l-.17.14h0a1,1,0,0,1,0-1.18A3.45,3.45,0,0,1,321.79,225.61Z"/><path class="cls-7" d="M304.26,294.16a5.88,5.88,0,0,0,4.42-.06C307.21,294.6,305.73,294.12,304.26,294.16Z"/><path class="cls-7" d="M304.26,294.16c1.47,0,2.95.44,4.42-.06C307.21,294.32,305.72,293.51,304.26,294.16Z"/><path class="cls-7" d="M327.35,296.28c1.21.81,2.54.26,3.82.33C329.92,296.23,328.59,296.8,327.35,296.28Z"/><path class="cls-7" d="M327.35,296.28c1.24.52,2.57,0,3.82.33C329.94,295.93,328.62,296.43,327.35,296.28Z"/><path class="cls-7" d="M336.16,225.88l.32.16c0-.72.61-1.09,1.2-1.47h-1.31C336.75,225.13,336.48,225.51,336.16,225.88Z"/><path class="cls-7" d="M336.16,225.88l-.22-.11c.14-.4.28-.8.43-1.2C336.75,225.13,336.48,225.51,336.16,225.88Z"/><path class="cls-7" d="M337.68,224.57c-.29.55-.58,1.09-.86,1.64l-.34-.17C336.51,225.32,337.09,225,337.68,224.57Z"/><path class="cls-7" d="M347,278c-.06-.39-.39-.54-.64-.76l0,.44C346.7,277.49,346.8,277.8,347,278Z"/><path class="cls-7" d="M347.08,279.14c-.3-.57-.52-1-.75-1.45.37-.2.47.11.62.32-.05-.39-.38-.54-.63-.76C347.48,277.44,347.17,278.25,347.08,279.14Z"/><path class="cls-7" d="M354.6,204.64c.58-1.63.5-1.9-.53-1.83C355.24,203.14,354.65,204,354.6,204.64Z"/><path class="cls-7" d="M354.6,204.64c0-.67.64-1.5-.53-1.83C354.87,203.24,354.35,204.06,354.6,204.64Z"/><path class="cls-7" d="M372.69,206.71a1,1,0,0,0,.46-1.71A2,2,0,0,1,372.69,206.71Z"/><path class="cls-7" d="M373.15,205a3,3,0,0,0-.46,1.71A2,2,0,0,0,373.15,205Z"/><path class="cls-7" d="M375.37,254.7a2.25,2.25,0,0,1,.29.5v-.88C375.43,254.35,374.85,254.1,375.37,254.7Z"/><path class="cls-7" d="M375.66,255.2a2.25,2.25,0,0,0-.29-.5c-.52-.6.06-.35.28-.38l-.71-1C374.77,254.2,374.94,254.81,375.66,255.2Z"/><path class="cls-7" d="M342.43,295.84a.49.49,0,0,1,0,.78c.47-.06,1.28.5,1.26-.42S342.92,295.75,342.43,295.84Z"/><path class="cls-7" d="M342.43,295.84v.78A.49.49,0,0,0,342.43,295.84Z"/><path class="cls-7" d="M342.27,240.74c-.72,0-1.44,0-2.16,0H312.72v0c-9.35,0-18.7,0-28.05,0-.68,0-1.95.64-1.84-.95.09-1.34,1.18-.75,1.82-.75q27.94-.06,55.89-.06c.57,0,1.15,0,1.72,0s.66.42.66.87S342.89,240.74,342.27,240.74Z"/><path class="cls-7" d="M330.67,242.77l0,.32H318.58a1,1,0,0,1-.77-.32Z"/><path class="cls-7" d="M352.81,254.49a6,6,0,0,1-.14-4.06C353.9,252,352.42,253.27,352.81,254.49Z"/><path class="cls-7" d="M321.74,225.79l-.13.18a1.8,1.8,0,0,1,.71.47,4.54,4.54,0,0,0-.21-.69C322.05,225.85,321.92,225.85,321.74,225.79Z"/><path class="cls-7" d="M321.74,225.79a1,1,0,0,1-.13.18,2.83,2.83,0,0,0-.44-.13l.45-.09h0Z"/><path class="cls-7" d="M322.94,229.77a7,7,0,0,1-.23-1c0-.28,0-.56.05-.83a1.94,1.94,0,0,0-.44-1.47,4.54,4.54,0,0,0-.21-.69.58.58,0,0,0,0-.38C323.69,226.59,322.9,228.26,322.94,229.77Z"/><path class="cls-7" d="M322.11,225.75c0-.1-.07-.19-.12-.29l-.2.15a1.21,1.21,0,0,1-.05.18C321.92,225.85,322.05,225.85,322.11,225.75Z"/><path class="cls-7" d="M322.11,225.75a.54.54,0,0,0,0-.38h0l-.11.09C322,225.56,322.07,225.65,322.11,225.75Z"/><path class="cls-7" d="M321.79,225.61l-.17.14.12,0A1.21,1.21,0,0,0,321.79,225.61Z"/><path class="cls-7" d="M321.52,226a2.27,2.27,0,0,1,.92,1.26,6.35,6.35,0,0,0-.12-.86,1.8,1.8,0,0,0-.71-.47Z"/><path class="cls-7" d="M321.61,226a2.83,2.83,0,0,0-.44-.13,2.91,2.91,0,0,1,.35.2Z"/><path class="cls-7" d="M322.71,228.74c0-.28,0-.56.05-.83a1.94,1.94,0,0,0-.44-1.47,6.35,6.35,0,0,1,.12.86A9.64,9.64,0,0,1,322.71,228.74Z"/><path class="cls-7" d="M330.68,247.85c-1.59,0-1.33-1.22-1.69-2.26,1.33.12.47,1.87,1.69,1.83,0,0-.07.05-.11.14A.25.25,0,0,0,330.68,247.85Z"/><path class="cls-7" d="M330.57,247.56a.25.25,0,0,0,.11.29v-.43S330.61,247.46,330.57,247.56Z"/><path class="cls-7" d="M294.29,231.06v2.87h-.21v-2.86Z"/><path class="cls-7" d="M223.56,243.49l0,0v0Z"/><path class="cls-7" d="M240.18,277.19c-.8,1.15-1.34,1.09-1.86.24C238.83,277.64,239.38,277.35,240.18,277.19Z"/><path class="cls-7" d="M403.33,283.74l-.78.86c.16.33.3.66.42,1A6.53,6.53,0,0,1,403.33,283.74Z"/><path class="cls-7" d="M403,287.78a3,3,0,0,1-1,1.12,1.71,1.71,0,0,0,2,0A1.17,1.17,0,0,1,403,287.78Z"/><path class="cls-7" d="M403,287.78c-.05-.43,0-.91,0-1.34a6.17,6.17,0,0,1,0-.86c-.12-.32-.26-.65-.42-1-.33,1.41.38,2.95-.52,4.3A3,3,0,0,0,403,287.78Z"/><path class="cls-7" d="M403,287.78a1.17,1.17,0,0,0,1,1.07c-1.33-1.55-.22-3.44-.69-5.11a6.53,6.53,0,0,0-.36,1.84A2.85,2.85,0,0,1,403,287.78Z"/><path class="cls-7" d="M403,285.58a6.17,6.17,0,0,0,0,.86c0,.43,0,.91,0,1.34A2.85,2.85,0,0,0,403,285.58Z"/><path class="cls-7" d="M390.76,279c-.78,2-.3,4-.33,6.06,0,1.13-.55,2.41.49,3.42A46.22,46.22,0,0,1,390.76,279Z"/><path class="cls-7" d="M390.92,288.47l-.16-9.48A46.22,46.22,0,0,0,390.92,288.47Z"/><path class="cls-7" d="M399.6,284.58h.22V280h-.22Z"/><path class="cls-7" d="M399.82,268.19h-.21v3.86h.21Z"/><path class="cls-7" d="M383.77,256.64l-.87,1.81C384.84,258.79,384,257.48,383.77,256.64Z"/><polygon class="cls-7" points="388.26 275.52 388.26 275.52 388.26 275.52 388.26 275.52 388.26 275.52 388.26 275.52"/><path class="cls-7" d="M388.26,275.52c-1.5.24-2.61.63-.87,2.16A2.17,2.17,0,0,1,388.26,275.52Z"/><polygon class="cls-7" points="387.4 277.69 387.4 277.69 387.4 277.69 387.39 277.68 387.39 277.69 387.39 277.69 387.39 277.69 387.4 277.69"/><path class="cls-7" d="M386.89,252.26h-.22v2.85h.22Z"/><path class="cls-7" d="M389.63,275c-.58-.32-1,.16-1.37.56l1.27.63C389.57,275.74,389.77,275.05,389.63,275Z"/><polygon class="cls-7" points="388.26 275.52 388.26 275.52 388.26 275.52 388.26 275.52"/><polygon class="cls-7" points="388.26 275.52 388.26 275.52 388.26 275.52 388.26 275.52"/><path class="cls-7" d="M387.63,248.54c.76.47,1.38.91,2,0C389,248.85,388.41,248.07,387.63,248.54Z"/><path class="cls-7" d="M405.37,261.06c.18-.51.35-1,.66-1.94A1.4,1.4,0,0,0,405.37,261.06Z"/><path class="cls-7" d="M390.86,292.36c-.22.62-1,.23-1.35.77.91.24,1.7.21,2.21-.69A.61.61,0,0,1,390.86,292.36Z"/><path class="cls-7" d="M391.72,292.44l-.86-.08A.61.61,0,0,0,391.72,292.44Z"/><path class="cls-7" d="M394.29,244.53a3.14,3.14,0,0,0,.59-.46l-.36-.4c-.42,0-.57.19-.58.5S394,244.63,394.29,244.53Z"/><polygon class="cls-7" points="387.39 277.69 387.4 277.69 387.4 277.69 387.39 277.69"/><path class="cls-7" d="M388.7,278.47c-.09-.84-.71-.78-1.3-.78,0,.32,0,.64,0,1C387.8,278.16,388.23,278.21,388.7,278.47Z"/><path class="cls-7" d="M387.44,278.65l1.26-.18C388.23,278.21,387.8,278.16,387.44,278.65Z"/><polygon class="cls-7" points="387.4 277.69 387.39 277.69 387.39 277.69 387.4 277.69 387.4 277.69"/><path class="cls-7" d="M255,287.19c0,.14-.28.28-.42.42.53-2.17.22-4.39.21-6.58,0-1.37.47-2.82-.32-4.14.19.18.55.36.55.55C255.09,280.69,255.07,283.94,255,287.19Z"/><path class="cls-7" d="M254.83,281c0-1.37.47-2.82-.32-4.14a72.39,72.39,0,0,1,.11,10.72C255.15,285.44,254.83,283.22,254.83,281Z"/><path class="cls-7" d="M256.24,277.25l-.22,6.61C256,281.65,255.48,279.43,256.24,277.25Z"/><path class="cls-7" d="M254.75,288.58l-1,1.21c-.15-.21-.3-.21-.43,0C253.43,289,253.72,288.49,254.75,288.58Z"/><path class="cls-7" d="M253.36,289.8h.43C253.64,289.58,253.5,289.58,253.36,289.8Z"/><path class="cls-7" d="M370.61,270.41a2.86,2.86,0,0,0,.09-1.36,11,11,0,0,1-.68,2.55h1A1.13,1.13,0,0,1,370.61,270.41Z"/><path class="cls-7" d="M370.92,263h-.76c.15.54.27,1.08.37,1.61A4.69,4.69,0,0,1,370.92,263Z"/><path class="cls-7" d="M370.7,269.05c-.05-.32-.11-.64-.15-1,.09-1.16-.11-2.34,0-3.5-.1-.53-.22-1.07-.37-1.61L370,271.6A11,11,0,0,0,370.7,269.05Z"/><path class="cls-7" d="M370.7,269.05a2.86,2.86,0,0,1-.09,1.36,1.13,1.13,0,0,0,.45,1.18l0-1.11c.08-.64-.55-1.28,0-1.9,0-1.87-.09-3.73-.13-5.6a4.69,4.69,0,0,0-.39,1.61A13.39,13.39,0,0,1,370.7,269.05Z"/><path class="cls-7" d="M371,270.48a1.5,1.5,0,0,0,.13-.43C371.11,270.19,371.07,270.33,371,270.48Z"/><path class="cls-7" d="M370.53,264.59c-.09,1.16.11,2.34,0,3.5,0,.32.1.64.15,1A13.39,13.39,0,0,0,370.53,264.59Z"/><path class="cls-7" d="M362,255.9h5.86C366,254.87,364.22,255.15,362,255.9Z"/><path class="cls-7" d="M374.39,245.35l-2.21-.21C372.78,245.88,373.58,245.72,374.39,245.35Z"/><path class="cls-7" d="M372,289.16c-.73-.29-1.24-.73-2.06-.52A1.67,1.67,0,0,0,372,289.16Z"/><path class="cls-7" d="M373.18,254.68c.17-.49.08-1-.51-.62-.43.24.08.74.16,1.66C373.05,255.07,373.12,254.88,373.18,254.68Z"/><path class="cls-7" d="M374.65,257.12c.25-.67.31-1.11,0-1.56A1.5,1.5,0,0,0,374.65,257.12Z"/><path class="cls-7" d="M354.37,217.13v-2.91A4.29,4.29,0,0,0,354.37,217.13Z"/><path class="cls-7" d="M377.82,300.86a5.27,5.27,0,0,0,.7.46c.08,0,.24-.08.36-.13l-.52-.63Z"/><path class="cls-7" d="M408.26,233.87c-.38,0-.5.19-.38.37a1.26,1.26,0,0,0,.61.46.27.27,0,0,0,.3-.38A2.12,2.12,0,0,0,408.26,233.87Z"/><path class="cls-7" d="M320.24,298.81l.08-.22H297.17v.22Z"/><path class="cls-7" d="M331.54,298.52h-3.27l0,.21h3.29Z"/><path class="cls-7" d="M279.72,298.76h3A3.76,3.76,0,0,0,279.72,298.76Z"/><path class="cls-7" d="M292.65,298.52h-2.43l0,.21h2.47Z"/><path class="cls-7" d="M345,298.6h-2.91A4.36,4.36,0,0,0,345,298.6Z"/><path class="cls-7" d="M342.26,239c-.57,0-1.15,0-1.72,0q-27.94,0-55.89.06c-.64,0-1.73-.59-1.82.75-.11,1.59,1.16.95,1.84.95,9.35,0,18.7,0,28.05,0v0h27.39c.72,0,1.44,0,2.16,0s.65-.43.65-.88S342.89,239,342.26,239Z"/><path class="cls-7" d="M371.15,270.05a2,2,0,0,0-.1-1.47A10.37,10.37,0,0,1,371.15,270.05Z"/><path class="cls-7" d="M371.05,268.58c-.58.62.05,1.26,0,1.9.05-.15.09-.29.13-.43A10.37,10.37,0,0,0,371.05,268.58Z"/><path class="cls-7" d="M243,239.24c0-.13,0-.29,0-.44Z"/><path class="cls-7" d="M243.24,234.5l0,.06C243.24,234.41,243.24,234.38,243.24,234.5Z"/><path class="cls-7" d="M232.14,242.8a.08.08,0,0,1,0,.06C232.07,242.9,232.09,242.88,232.14,242.8Z"/><path class="cls-7" d="M232.13,237.9a.28.28,0,0,0,0,.09v-.1Z"/><path class="cls-7" d="M235.64,239.13h0a8.76,8.76,0,0,1-.08-1.38h0a1.78,1.78,0,0,1,0-.26l.15,1.82A.35.35,0,0,1,235.64,239.13Z"/><path class="cls-7" d="M221.68,265.83a2.55,2.55,0,0,0-.38.24,3.62,3.62,0,0,1,.13-.35Z"/><path class="cls-7" d="M263.67,192.91c-3.81,0-4.61.57-5.41,4.27a19.56,19.56,0,0,0-.2,2.78c-.06.75.2.94,1,.82a26.41,26.41,0,0,1,9-.09c.4.07.77.14,1-.47A5.66,5.66,0,0,0,263.67,192.91Zm.61,5.36h-1.61v-2.08s.11-.91.8-.91.81.91.81.91Zm0-2.08v2.08m-1.61,0v-2.08"/><path class="cls-7" d="M356.67,200.22c.21.61.57.54,1,.47a26.41,26.41,0,0,1,9,.09c.77.12,1-.07,1-.82a19.57,19.57,0,0,0-.19-2.78c-.81-3.7-1.6-4.29-5.42-4.27A5.64,5.64,0,0,0,356.67,200.22Zm4.73-4s.12-.91.81-.91.81.91.81.91v2.08H361.4Zm0,2.08v-2.08m1.62,0v2.08"/></g><circle class="cls-9" cx="359.38" cy="154.52" r="20.81"/><path class="cls-10" d="M214.35,248.94c7.79,22.41-2.82,34.87-19.26,40.59s-32.49,2.51-40.28-19.9,12.07-61.29,12.07-61.29S206.56,226.52,214.35,248.94Z"/><polygon class="cls-7" points="192.81 286.47 186.6 267.61 191.22 239.99 185.62 264.65 182.83 256.16 185.74 236.33 182.09 253.92 182.09 253.92 177.06 238.66 181.78 222.03 176.27 236.26 166.76 208.38 178.59 245.55 178.14 244 163.56 232.74 179 246.97 184 264.23 183.82 263.79 167.52 252.27 184.34 265.39 184.97 267.55 184.96 267.58 185.03 267.75 197.72 311.53 200.72 310.48 193.37 288.15 198.42 267.48 192.81 286.47"/><path class="cls-7" d="M367.18,296.65c-23.19,35.65-35.06,63-72.6,64-40.08,1.1-90.78-22.1-118.69-52.67a69.83,69.83,0,0,1,17.77-6.56c12-2.64,21.19-1.23,29.39-.48,8.67.78,4.33-.27,41.91-1,42.36-.79,51.88.47,80-1.44C354.64,297.9,362.48,297.14,367.18,296.65Z"/></g><g id="Makam"><path class="cls-1" d="M924.44,755c-7.11,48.83,34,68.69,23.63,103.71-13.77,46.5-99.24,55.29-103.32,55.66-10.44,1-94.8,7.54-125.49-47.44-17.88-32-7.82-67.44-6.25-72.69,12.4-41.41,42.89-40.86,94.9-100.91,33.84-39.07,34.39-54.82,56.47-60.87,35.54-9.73,84.65,17.28,90.49,48.86C959.78,707.78,930.16,715.68,924.44,755Z"/><g class="cls-11"><path class="cls-7" d="M991.74,848.35C954.85,905.07,936,948.59,876.21,950.23c-63.76,1.75-144.42-35.16-188.84-83.8,42.38-35.33,69-38,85.73-33.2,12.71,3.66,27,13.75,53.51,15.12,9.06.47,12.46-.45,26.75-1.74,31.07-2.83,54.94-2.11,86.66-1.17C953.67,845.85,971.23,846.66,991.74,848.35Z"/><path class="cls-7" d="M856.28,748.32c-.87-.37-7.18,25.43-28.69,50.28-16.16,18.67-34.69,29.63-48.68,36.18l-.42,5.51a122.76,122.76,0,0,0,49.15-33C851.73,780.3,857.23,748.72,856.28,748.32Z"/><path class="cls-7" d="M890.85,749.29c.73-.26,5.59,26,25.65,52C931.79,821,950.06,833,964,840.3c-.08,1.8-.17,3.59-.25,5.39A125.47,125.47,0,0,1,917,810C894,781.3,890.06,749.57,890.85,749.29Z"/><path class="cls-7" d="M860.57,703.81h0s.18-6.46-.79-26.6a35.23,35.23,0,0,0-2.34-11.2l-6.27-.17c.22,15.7,0,32.25-.74,49.57-.79,18.1-2.12,35.32-3.81,51.57a88,88,0,0,1,5.46-13.87A87,87,0,0,1,858,743c1.14-6.12,1.67-11.07,1.94-14.23C860.93,716.6,860.42,703.81,860.57,703.81Z"/><path class="cls-7" d="M899.33,716.78c.09-17.15.59-33.69,1.38-49.56l-6.46-.18c-.35,1.62-.76,3.56-1.19,5.83,0,0-.51,2.65-.93,5.25-1.54,9.44-2.39,30.37-2.39,30.37-.45,11.17-.67,16.87-.49,22.21.21,6.2.69,11.38,1.11,15.09a99.11,99.11,0,0,1,6.12,12.14,100.54,100.54,0,0,1,3.77,10.55C899.57,752,899.23,734.7,899.33,716.78Z"/><path class="cls-7" d="M875.53,774.56c-.52-2.56-1-5.2-1.47-7.91-.29-1.72-.56-3.41-.8-5.08q-.64,2.53-1.33,5.12c-.71,2.62-1.44,5.2-2.18,7.71L867.61,851l6.23.18Q874.7,812.87,875.53,774.56Z"/><path class="cls-7" d="M858.23,849.48a7.32,7.32,0,0,1,1-.86,12.2,12.2,0,0,1,3-.59,12.63,12.63,0,0,1,3.15.2c2.77-51.37,2.88-66.79,2-66.86-.5,0-1,4.81-4.25,12.45a75,75,0,0,1-4.75,9.39l-1.33,47.5h.15A7.61,7.61,0,0,1,858.23,849.48Z"/><path class="cls-7" d="M857.24,850.71h-.15v.19S857.2,850.77,857.24,850.71Z"/><path class="cls-7" d="M878.79,781c.45,0,.52,6.2,3.91,14.6a54.87,54.87,0,0,0,3.85,7.71l-1.41,47.73a5.8,5.8,0,0,0-1-1.18,6.79,6.79,0,0,0-1-.7,14.09,14.09,0,0,0-2.89-.41A13.29,13.29,0,0,0,877,849C877.4,793,878.16,781,878.79,781Z"/><path class="cls-7" d="M855.8,808.86a49.51,49.51,0,0,1-6.24,14.94q.57,6.26,1,12.88c.28,4.75.46,9.36.57,13.86l3.43.1Z"/><path class="cls-7" d="M892.34,837.85q.76-6.58,1.69-12.8a49,49,0,0,1-3.14-6.92,49.79,49.79,0,0,1-2.25-8.35l-1.08,41.78,3.43.1C891.35,847.17,891.79,842.58,892.34,837.85Z"/><path class="cls-7" d="M858.84,657.29a13.24,13.24,0,0,1,2.67,2.94,13,13,0,0,1,1.61,3.37c.7,3.81,1.62,9.37,2.41,16.14q.87,7.43,1.28,14.24c1,11,1.85,22.57,2.38,34.58.62,13.75.81,26.92.67,39.47A93,93,0,0,1,867,778.6a95.68,95.68,0,0,1-6.77,15.58A161.23,161.23,0,0,0,864.88,777s1.09-5.16,1.87-10.6c2.2-15.23,1.65-31.81,1.37-37.9a268.6,268.6,0,0,0-4.61-45.82c-1.23-6.55-2.66-12.78-4.21-18.66a21.53,21.53,0,0,1-.52-4A21.19,21.19,0,0,1,858.84,657.29Z"/><path class="cls-7" d="M894.09,658.28a13.24,13.24,0,0,0-2.83,2.79,13,13,0,0,0-1.8,3.27c-.91,3.76-2.14,9.26-3.31,16-.86,4.9-1.54,9.63-2.07,14.14q-2.48,16.44-4.32,34.4c-1.38,13.69-2.31,26.83-2.88,39.36a97.34,97.34,0,0,0,2.27,10.72A95.64,95.64,0,0,0,885,794.88a161.84,161.84,0,0,1-3.68-17.46s-.8-5.22-1.28-10.68c-1.33-15.33.14-31.86.76-37.92A269.3,269.3,0,0,1,888,683.33c1.6-6.48,3.37-12.61,5.25-18.39a22.21,22.21,0,0,0,.74-4A23.13,23.13,0,0,0,894.09,658.28Z"/><path class="cls-7" d="M869,699.48a11.73,11.73,0,0,1,3.77-1.33,12.65,12.65,0,0,1,8.2,1.55A6.7,6.7,0,0,0,880,696a4.08,4.08,0,0,0-1.48-1.62,2.72,2.72,0,0,0-.29-.14,8.34,8.34,0,0,0-6-.2l-.34.15a3.91,3.91,0,0,0-1.27,1.22A9,9,0,0,0,869,699.48Z"/><path class="cls-7" d="M880.28,708.23c-1.24,5-2.35,10.38-3.27,16.11A198.93,198.93,0,0,0,874.5,755l-1.41,0a226.33,226.33,0,0,0-.91-30.86c-.57-5.76-1.33-11.22-2.21-16.36a22.67,22.67,0,0,1,5.2-.35A23.24,23.24,0,0,1,880.28,708.23Z"/><path class="cls-7" d="M880.78,702.36a45.46,45.46,0,0,0-5.82-.56,44.8,44.8,0,0,0-5.82.16,7.12,7.12,0,0,1,11.64.4Z"/><path class="cls-7" d="M878.35,704.94a5.3,5.3,0,0,1,.24-1.5,5,5,0,0,1,.61-1.31c-.36-.06-.75-.12-1.16-.16a13.33,13.33,0,0,0-1.36-.08,3.56,3.56,0,0,1,.59,1.18,4.06,4.06,0,0,1,.14,1.42,7.61,7.61,0,0,1-.87,3,7.4,7.4,0,0,1-.7-3,4.13,4.13,0,0,1,.22-1.43,4,4,0,0,1,.62-1.12,8.44,8.44,0,0,0-1.73-.21l-.59,0a5.92,5.92,0,0,1,.58,2.72,6.23,6.23,0,0,1-.84,3l1,0a31.32,31.32,0,0,1,4,.46,5.5,5.5,0,0,1-.62-1.68A6.48,6.48,0,0,1,878.35,704.94Z"/><path class="cls-7" d="M879.2,702.13a5.16,5.16,0,0,1,.58,1.39,5.4,5.4,0,0,1,.14,1.46,6.82,6.82,0,0,1-.13,1.17,5.79,5.79,0,0,1-.73,1.77c.2.07.42.13.64.19l.58.14q.22-1.37.36-2.94c.09-1,.13-2,.14-2.95a3.14,3.14,0,0,0-.75-.19A4.15,4.15,0,0,0,879.2,702.13Z"/><path class="cls-7" d="M871.94,704.57a6.2,6.2,0,0,0-.11-1.33,3.59,3.59,0,0,0-.72-1.42,8.07,8.07,0,0,1,1.41-.13,9.27,9.27,0,0,1,1.37.08,3,3,0,0,0-.65.93,3.46,3.46,0,0,0-.21,1.41,8.51,8.51,0,0,0,.71,3.21,9.12,9.12,0,0,0,.86-3.16,3.53,3.53,0,0,0-.15-1.45,2.72,2.72,0,0,0-.56-.94,4.41,4.41,0,0,1,1.61-.1,4.33,4.33,0,0,1,.7.14,3.58,3.58,0,0,0-.47.88,4.63,4.63,0,0,0-.24,1.49,5.9,5.9,0,0,0,.88,3.33c-.27,0-.67,0-1.16,0-.77,0-1.38,0-2.13,0-.48,0-1.14,0-1.94.14a3.92,3.92,0,0,0,.76-1.78A7.26,7.26,0,0,0,871.94,704.57Z"/><path class="cls-7" d="M871.08,701.82a5.44,5.44,0,0,0-.52,1.22,5.19,5.19,0,0,0-.21,1.53,5.67,5.67,0,0,0,.24,1.63,7,7,0,0,0,.57,1.42c-.41.07-.86.12-1.21.2-.16-.91-.32-1.86-.46-2.84s-.26-2.05-.35-3a7.51,7.51,0,0,1,1.17-.14C870.59,701.81,870.84,701.81,871.08,701.82Z"/><path class="cls-7" d="M863.25,696.71s.15,2.34.16,7.73A193.72,193.72,0,0,1,861.15,734c-2.38,15.47-5.15,33.48-16.77,53.47a131.78,131.78,0,0,1-40.66,42.28,133.73,133.73,0,0,1-25,12.92l-.17,5.85,16.08.45,29.12.81,8.49.24a205.61,205.61,0,0,0,17.41-33,209.06,209.06,0,0,0,13.43-47.48C869.23,730.74,863.42,696.7,863.25,696.71Zm-41.63,144.5q-3.61,4.15-7.25,8.3l-16.17-.45,8.27-13,15.29.43Z"/><path class="cls-7" d="M939,833.53A131.69,131.69,0,0,1,900.81,789c-10.49-20.61-12.25-38.74-13.76-54.32a193.28,193.28,0,0,1-.59-29.63c.3-5.44.63-7.71.59-7.72s-7.73,34.47-3.76,72.48a219.64,219.64,0,0,0,11.56,49.77,223.62,223.62,0,0,0,14.62,32.55l8.47.24,29.12.82,16.08.45.17-5.85A133.09,133.09,0,0,1,939,833.53Zm-11.77,19.14L920.49,844l.14-4.74,15.28.42,7.53,13.47Z"/><path class="cls-7" d="M869.38,695.39a7.46,7.46,0,0,1,11.61.17c.11-3.09.21-6.18.32-9.27a25.3,25.3,0,0,0-5.56-.88,24.45,24.45,0,0,0-6.41.55Z"/><circle class="cls-9" cx="794.92" cy="731.2" r="29.95"/></g><path class="cls-7" d="M730.35,839.62S743,805.77,736,784.94s-12.53-20-12.53-20-9.43-2.44-21.15,4.72-14.81,9.27-21.48,6.35-8-7.49-24.24-7c0,0,8.62-4.72,17.08-.49s14.16,6.51,22.78,0,20.51-15,32.06-9.93c0,0-8.46-8.29-11.23-8.29s-15.78-1.31-20-5.7c0,0-6-4.23-16.76,6.18s-8.14,10.42-17.74,9.6a42.14,42.14,0,0,1-17.08-5.53s11.22,4.56,18.06,2.28,12.69-10.9,18.71-13.83,9.6-6.83,17.74-2.6c0,0-3.42-14-9.93-12.86s-20.83.16-30.43-6.51c0,0-7.64-.16-11.06,1.47,0,0,8.95-5.21,16.6-1.47s28,3.26,28,3.26-1.79-23.76-5.2-25.39-1.31-5.85-7.65-6.67c0,0,7.81-1,9.27,4.4s11.56,34.33,11.56,34.33,6.18,12.37,13,9.44-2.6-19.37-2.6-19.37L700.08,716s8.79-.32,14.16,4.72S719.93,742,719.93,742s13.51,2,16.76,9.27c0,0,2.12-6.51-2-10.41a18.89,18.89,0,0,1-3.11-4.67,41.22,41.22,0,0,1-4-24.86c.61-4.17,1-8.24.32-9.2-1.47-2.11-7.65-15.13-8.14-18.55s.49-10.57.49-10.57.16,8.78,2.12,11.55S729.86,701,729.86,701s2.93-6,6.35-7.48,8.62-10.41,6.67-14.81c0,0,2.44,6.84.49,10.74s-7.49,8.46-7.49,8.46-6,20.34-1.46,28.8,13.34,17.9,12.85,24.08v3.58s9.76-9.27,9.11-12.36-1.46-10.42-7.64-14.81-10.26-11.39-5.86-21.48,4.39-11.88,4.39-11.88l-2.93,12.53s-1.63,11.23,2.93,15.14a119.29,119.29,0,0,1,10.58,11.06l-1.3-23.43s-.33-19.2,18.38-27.5l11.88-5-12.2,7.64s-14.65,13-13.67,21a43.43,43.43,0,0,1-.16,13.18s9.11-11.71,19.85-15.62S798,685.2,798,685.2l9.11-7.16-7.49,9s-2.27,10.58-15.13,18.06-21.15,18.55-21.64,25.39-1,12.85-1,12.85,24.09-.81,29.46-11.39,5.85-31.57,11.06-35,15-7.65,15-7.65l-10.9,9s-2.28,7.32-1.79,12.53-3.58,10.09-3.58,10.09,11.23-3.91,17.41-11.39a188.77,188.77,0,0,1,13.34-14.32s-8.62,12.85-8.62,13.34-5.21,5.53-4.56,8.62-9.92,6.67-9.92,6.67L798,730l-3.42,7.81s14,.32,21.32,8.62,25.54,10.74,25.54,10.74l-10.25,2.77a94.68,94.68,0,0,1-19-9.28c-9.27-6-8.29-11.39-19.85-5.37S765,756.31,765,756.31s9.11-4.23,25.54,6,34,3.41,34,3.41-3.91,7.49-12.2,8-29.94-13.18-37.27-9.28-10.73-1-13.66,8.79-8.3,36.45-2.12,51.42l6.18,15Z"/><path class="cls-12" d="M791.61,731.9c-4.36,8.59-21.07,10.74-27.19,11.24-.17,2.21-.28,3.61-.28,3.61s24.08-.82,29.45-11.39,5.86-31.57,11.06-35c.55-.36,1.16-.73,1.8-1.11.17-.65.3-1,.3-1l10.9-9s-9.77,4.23-15,7.65S797,721.32,791.61,731.9Z"/><path class="cls-12" d="M806.38,718.66a18.6,18.6,0,0,1-3,5.63s9.78-3.4,16.11-9.94c1.23-2.7,4-5.52,4-5.88s8.62-13.34,8.62-13.34a188.77,188.77,0,0,0-13.34,14.32C815.28,713.69,810.16,716.78,806.38,718.66Z"/><path class="cls-12" d="M747.52,721.49l-.33-.31a8.18,8.18,0,0,0,2.3,3.76A120.23,120.23,0,0,1,760.07,736l-1.3-23.43s-.22-12.77,9.85-22a81.56,81.56,0,0,1,6.23-6.38l12.21-7.64-11.88,5c-18.71,8.3-18.39,27.5-18.39,27.5l1.3,23.43A120.08,120.08,0,0,0,747.52,721.49Z"/><path class="cls-12" d="M763.55,715.46a34.22,34.22,0,0,1-.55,6.39s9.11-11.71,19.84-15.62c.64-.4,1.28-.79,1.94-1.18,12.85-7.48,15.13-18.06,15.13-18.06l7.49-9-9.12,7.16s-6.67,13.67-17.41,17.57C773.55,705.44,767,711.73,763.55,715.46Z"/><path class="cls-12" d="M749.49,754.23v3.58s9.77-9.27,9.11-12.37c-.49-2.36-1.09-7.2-4.11-11.31a36.2,36.2,0,0,1,2.14,7.86c.47,2.22-4.42,7.61-7.22,10.49A7.87,7.87,0,0,1,749.49,754.23Z"/><path class="cls-12" d="M736.4,729.66a4.44,4.44,0,0,0,.24.49c2.49,4.63,6.25,9.56,9.07,14.08C743.43,739.75,739.48,734.63,736.4,729.66Z"/><path class="cls-12" d="M790.8,762.33a47.36,47.36,0,0,0-13.67-6.06c-3.92,1.48-7.14,2.58-8.77,3.12,2.92-.75,11.35-1.75,24.41,6.39,10.25,6.4,20.94,6.14,27.54,5.05a17.14,17.14,0,0,0,4.5-5.09S807.23,772.58,790.8,762.33Z"/><path class="cls-12" d="M744.33,722.74a16.13,16.13,0,0,1,0-11.53,34.44,34.44,0,0,1,.28-4.86l2.56-11a97.51,97.51,0,0,1-4,10.31C740,712.89,741.16,718.51,744.33,722.74Z"/><path class="cls-12" d="M816.18,746.38c-5.07-5.75-13.36-7.67-18-8.31l-1.38,3.14s14,.33,21.32,8.63c4.06,4.6,11.47,7.4,17.27,9l6.3-1.7S823.51,754.68,816.18,746.38Z"/><path class="cls-12" d="M716.62,744.14c6.84-2.93-2.6-19.36-2.6-19.36l-.26-.12c2.36,5,5.77,13.94.89,16-4.57,1.95-8.84-2.91-11.17-6.36.08.24.13.37.13.37S709.79,747.07,716.62,744.14Z"/><path class="cls-12" d="M738.92,754.72s2.06-6.35-1.81-10.27a13.17,13.17,0,0,1-.17,6.81c-2.52-5.66-11.17-8.11-15-8.93.15,1.88.18,3.11.18,3.11S735.66,747.4,738.92,754.72Z"/><path class="cls-12" d="M747.15,695.39a7.05,7.05,0,0,0,.37-1.57Z"/><path class="cls-12" d="M665.92,760.61l.1,0c6.83-2.28,12.69-10.91,18.71-13.83s9.6-6.84,17.74-2.61c0,0-1.43-5.82-4.18-9.65a37.76,37.76,0,0,1,2.2,6.2c-8.13-4.23-11.71-.33-17.73,2.6S670.88,754.84,664,757.12,646,754.84,646,754.84a42.23,42.23,0,0,0,17.09,5.53Z"/><path class="cls-12" d="M660.14,721.32a30.82,30.82,0,0,0,4,2.32,13,13,0,0,1,3.55,1.14c4.92,2.41,15.09,3.06,21.72,3.23.42-.06.82-.11,1.2-.18a4.33,4.33,0,0,1,2.28.22c1.72,0,2.78,0,2.78,0s-1.79-23.75-5.2-25.38l-.08,0c2.18,7,3.31,22,3.31,22s-20.34.49-28-3.26-16.59,1.47-16.59,1.47C652.49,721.16,660.14,721.32,660.14,721.32Z"/><path class="cls-12" d="M733.76,839.62c3-9.14,10.15-34.42,4.5-51.22-2.43-7.26-4.69-11.88-6.6-14.84a84.21,84.21,0,0,1,4.63,11.38c7,20.83-5.69,54.68-5.69,54.68Z"/><path class="cls-12" d="M670.21,770.31A16.48,16.48,0,0,1,676,772c6.68,3.34,11.64,5.46,17.67,3,1.38-.73,2.92-1.63,4.69-2.7l.42-.3c8.62-6.51,20.5-15,32-9.93,0,0-2.33-2.29-4.95-4.46-10.59-2.6-21.2,5-29.08,10.93-8.62,6.51-14.32,4.23-22.78,0s-17.08.49-17.08.49C663.17,768.81,667.22,769.37,670.21,770.31Z"/><path class="cls-12" d="M686.73,697.61a4.32,4.32,0,0,0,.67.86A5.09,5.09,0,0,0,686.73,697.61Z"/><path class="cls-12" d="M716.46,724.13a8.51,8.51,0,0,1,.71.76,12.45,12.45,0,0,0-2.68-4.22c-5.37-5-14.16-4.72-14.16-4.72l11,5A15.83,15.83,0,0,1,716.46,724.13Z"/><path class="cls-12" d="M728.15,702.12c.67,1,.3,5-.31,9.2a41.28,41.28,0,0,0,4,24.86,28.46,28.46,0,0,0,1.74,3,41.36,41.36,0,0,1-3.8-24.38c.61-4.16,1-8.23.32-9.19-1.47-2.12-7.65-15.13-8.14-18.55a24.19,24.19,0,0,1-.1-4c-1.26-3.59-1.38-10-1.38-10s-1,7.16-.49,10.57S726.69,700,728.15,702.12Z"/><path class="cls-12" d="M732.08,704.44a25.54,25.54,0,0,1,3.77-5.54c.17-.65.28-1,.28-1s5.53-4.55,7.48-8.46c1.51-3,.39-7.8-.19-9.8,1,4.62-3.78,12.5-7,13.87-2.76,1.18-5.21,5.35-6,6.9C731.39,702.73,732.08,704.44,732.08,704.44Z"/><path class="cls-12" d="M743.42,679.63a4.47,4.47,0,0,0-.3-.94S743.25,679,743.42,679.63Z"/><path class="cls-12" d="M686,696a8.53,8.53,0,0,1,4.34,1.63l-.21-.73c-1.47-5.37-9.28-4.4-9.28-4.4C684.33,693,685.25,694.49,686,696Z"/><path class="cls-7" d="M766.33,831.26a13.78,13.78,0,0,0-1.77,8.45,11.86,11.86,0,0,0,8.79-13.48A13.8,13.8,0,0,0,766.33,831.26Z"/><path class="cls-10" d="M768.15,831.91a13.8,13.8,0,0,1-3.49,7.91,11.87,11.87,0,0,1,.7-16.08A13.82,13.82,0,0,1,768.15,831.91Z"/><path class="cls-7" d="M726.39,832.66a13.81,13.81,0,0,0,5.13,7,11.85,11.85,0,0,0-4.2-15.53A13.79,13.79,0,0,0,726.39,832.66Z"/><path class="cls-10" d="M728.09,831.74a13.79,13.79,0,0,1,3.58,7.87,11.86,11.86,0,0,1-11.53-11.23A13.76,13.76,0,0,1,728.09,831.74Z"/><path class="cls-10" d="M717.54,715.47a13.75,13.75,0,0,1-3.63,7.83,11.86,11.86,0,0,1,1-16.06A13.78,13.78,0,0,1,717.54,715.47Z"/><path class="cls-10" d="M682.51,687.43a13.78,13.78,0,0,1,5.13,7A11.86,11.86,0,0,1,674,685.8,13.77,13.77,0,0,1,682.51,687.43Z"/><path class="cls-10" d="M674.12,741.49a13.78,13.78,0,0,1,5.13,7,11.86,11.86,0,0,1-13.61-8.58A13.77,13.77,0,0,1,674.12,741.49Z"/><path class="cls-10" d="M694.11,762.23a13.78,13.78,0,0,1,5.13,6.95,11.88,11.88,0,0,1-13.61-8.59A13.81,13.81,0,0,1,694.11,762.23Z"/><path class="cls-10" d="M750.52,695.34a13.76,13.76,0,0,1-5.09,7,11.87,11.87,0,0,1,4.11-15.55A13.75,13.75,0,0,1,750.52,695.34Z"/><path class="cls-10" d="M786.27,698.69a13.81,13.81,0,0,1-5.41,6.73,11.88,11.88,0,0,1,4.83-15.35A13.75,13.75,0,0,1,786.27,698.69Z"/><path class="cls-10" d="M824.92,745.86a13.78,13.78,0,0,1-7,5,11.85,11.85,0,0,1,8.74-13.5A13.8,13.8,0,0,1,824.92,745.86Z"/></g></svg>